<svg width="234" height="241" viewBox="0 0 234 241" fill="none" xmlns="http://www.w3.org/2000/svg">
<circle cx="116.639" cy="116.536" r="114.536" fill="#B76334" stroke="black" stroke-width="4"/>
<circle cx="116.64" cy="116.536" r="93.9622" fill="#FFD53F"/>
<circle cx="116.639" cy="116.536" r="73.886" fill="#B76334"/>
<circle cx="116.64" cy="116.536" r="53.4632" fill="#FFD53F"/>
<circle cx="116.639" cy="116.536" r="34.427" fill="#DF3D3D"/>
<mask id="path-6-outside-1_10_2" maskUnits="userSpaceOnUse" x="49.3362" y="25.9289" width="135" height="175" fill="black">
<rect fill="white" x="49.3362" y="25.9289" width="135" height="175"/>
<path fill-rule="evenodd" clip-rule="evenodd" d="M128.805 48.7448C127.486 52.4231 126.372 54.8496 125.497 56.4441L120.72 55.8455C117.418 55.4318 114.077 55.4318 110.775 55.8455L107.48 56.2583C106.69 54.6915 105.739 52.5066 104.649 49.4667C103.482 46.2101 103.247 42.8562 103.041 39.8985C102.636 34.098 102.337 29.8209 95.313 30.7876C87.5996 31.8492 88.3153 36.2595 89.4045 42.9705L89.4045 42.9705C89.8128 45.4864 90.2735 48.3257 90.3624 51.433C90.5784 58.9903 88.4819 62.0686 87.045 63.2849C86.7778 58.3768 84.5653 52.5074 80.5698 47.0929C73.2207 37.1339 62.6224 32.4852 56.8977 36.7096C51.173 40.934 52.4898 52.4319 59.8388 62.3909C64.893 69.24 71.4841 73.5775 76.9697 74.2444C73.3876 79.6928 71.1032 86.0676 70.5393 92.9275L69.3428 107.483C68.8229 113.808 69.8187 120.157 72.1636 126.054C75.6732 134.88 81.0714 148.812 85.2617 161.22C86.951 166.222 88.2291 170.877 89.3504 174.962C91.5814 183.089 93.1922 188.956 96.1874 190.8C106.727 197.286 123.104 198.363 133.785 190.8C136.271 189.039 137.452 184.106 139.015 177.573C140.163 172.777 141.518 167.119 143.747 161.22C148.162 149.532 154.191 136.901 158.579 128.162C162.22 120.911 163.853 112.785 162.994 104.717L161.648 92.0697C160.952 85.5235 158.69 79.4526 155.24 74.2397C160.874 73.6866 167.816 69.1341 173.154 61.9013C180.702 51.6719 182.181 39.9548 176.456 35.7304C170.732 31.5059 159.971 36.3739 152.423 46.6033C148.521 51.8913 146.241 57.5768 145.739 62.4194C144.338 60.2748 142.923 56.6238 143.092 50.7111C143.181 47.6037 143.641 44.7644 144.05 42.2485C145.139 35.5375 145.855 31.1272 138.141 30.0656C131.117 29.0989 130.819 33.3761 130.413 39.1766C130.207 42.1343 129.973 45.4881 128.805 48.7448Z"/>
</mask>
<path fill-rule="evenodd" clip-rule="evenodd" d="M128.805 48.7448C127.486 52.4231 126.372 54.8496 125.497 56.4441L120.72 55.8455C117.418 55.4318 114.077 55.4318 110.775 55.8455L107.48 56.2583C106.69 54.6915 105.739 52.5066 104.649 49.4667C103.482 46.2101 103.247 42.8562 103.041 39.8985C102.636 34.098 102.337 29.8209 95.313 30.7876C87.5996 31.8492 88.3153 36.2595 89.4045 42.9705L89.4045 42.9705C89.8128 45.4864 90.2735 48.3257 90.3624 51.433C90.5784 58.9903 88.4819 62.0686 87.045 63.2849C86.7778 58.3768 84.5653 52.5074 80.5698 47.0929C73.2207 37.1339 62.6224 32.4852 56.8977 36.7096C51.173 40.934 52.4898 52.4319 59.8388 62.3909C64.893 69.24 71.4841 73.5775 76.9697 74.2444C73.3876 79.6928 71.1032 86.0676 70.5393 92.9275L69.3428 107.483C68.8229 113.808 69.8187 120.157 72.1636 126.054C75.6732 134.88 81.0714 148.812 85.2617 161.22C86.951 166.222 88.2291 170.877 89.3504 174.962C91.5814 183.089 93.1922 188.956 96.1874 190.8C106.727 197.286 123.104 198.363 133.785 190.8C136.271 189.039 137.452 184.106 139.015 177.573C140.163 172.777 141.518 167.119 143.747 161.22C148.162 149.532 154.191 136.901 158.579 128.162C162.22 120.911 163.853 112.785 162.994 104.717L161.648 92.0697C160.952 85.5235 158.69 79.4526 155.24 74.2397C160.874 73.6866 167.816 69.1341 173.154 61.9013C180.702 51.6719 182.181 39.9548 176.456 35.7304C170.732 31.5059 159.971 36.3739 152.423 46.6033C148.521 51.8913 146.241 57.5768 145.739 62.4194C144.338 60.2748 142.923 56.6238 143.092 50.7111C143.181 47.6037 143.641 44.7644 144.05 42.2485C145.139 35.5375 145.855 31.1272 138.141 30.0656C131.117 29.0989 130.819 33.3761 130.413 39.1766C130.207 42.1343 129.973 45.4881 128.805 48.7448Z" fill="#FFD53F"/>
<path d="M125.497 56.4441L125 60.4131L127.698 60.751L129.005 58.3671L125.497 56.4441ZM128.805 48.7448L125.04 47.3947L125.04 47.3948L128.805 48.7448ZM120.72 55.8455L120.223 59.8145L120.223 59.8145L120.72 55.8455ZM110.775 55.8455L110.278 51.8766L110.278 51.8766L110.775 55.8455ZM107.48 56.2583L103.909 58.0601L105.179 60.5779L107.977 60.2273L107.48 56.2583ZM104.649 49.4667L108.415 48.1167L108.415 48.1167L104.649 49.4667ZM103.041 39.8985L99.0505 40.1773L99.0505 40.1773L103.041 39.8985ZM95.313 30.7876L95.8584 34.7502L95.8584 34.7502L95.313 30.7876ZM89.4045 42.9705L85.4561 43.6113L85.5003 43.8834L85.5813 44.1468L89.4045 42.9705ZM89.4045 42.9705L93.3528 42.3298L93.3086 42.0577L93.2276 41.7942L89.4045 42.9705ZM90.3624 51.433L94.3607 51.3188L94.3607 51.3187L90.3624 51.433ZM87.045 63.2849L83.0509 63.5023L83.4883 71.5363L89.6293 66.3379L87.045 63.2849ZM80.5698 47.0929L83.7883 44.7178L83.7883 44.7178L80.5698 47.0929ZM56.8977 36.7096L59.2728 39.9281L59.2728 39.9281L56.8977 36.7096ZM59.8388 62.3909L56.6203 64.766L56.6203 64.766L59.8388 62.3909ZM76.9697 74.2444L80.312 76.4419L83.8555 71.0521L77.4524 70.2737L76.9697 74.2444ZM70.5393 92.9275L74.5259 93.2552L74.5259 93.2552L70.5393 92.9275ZM69.3428 107.483L65.3563 107.155L65.3563 107.155L69.3428 107.483ZM72.1636 126.054L75.8805 124.576L75.8805 124.576L72.1636 126.054ZM85.2617 161.22L81.472 162.5L81.472 162.5L85.2617 161.22ZM89.3504 174.962L85.4931 176.021L85.4931 176.021L89.3504 174.962ZM96.1874 190.8L98.2841 187.393L98.2841 187.393L96.1874 190.8ZM133.785 190.8L131.473 187.535L131.473 187.535L133.785 190.8ZM139.015 177.573L142.906 178.504L142.906 178.504L139.015 177.573ZM143.747 161.22L147.488 162.634L147.488 162.634L143.747 161.22ZM158.579 128.162L155.004 126.367L155.004 126.367L158.579 128.162ZM162.994 104.717L159.017 105.14L159.017 105.14L162.994 104.717ZM161.648 92.0697L157.671 92.493L157.671 92.493L161.648 92.0697ZM155.24 74.2397L154.849 70.2589L148.239 70.908L151.905 76.4473L155.24 74.2397ZM173.154 61.9013L169.935 59.5262L169.935 59.5262L173.154 61.9013ZM176.456 35.7304L174.081 38.9489L174.081 38.9489L176.456 35.7304ZM152.423 46.6033L149.204 44.2282L149.204 44.2282L152.423 46.6033ZM145.739 62.4194L142.39 64.6071L148.557 74.0456L149.718 62.8314L145.739 62.4194ZM143.092 50.7111L147.09 50.8254L147.09 50.8254L143.092 50.7111ZM144.05 42.2485L147.998 42.8893L147.998 42.8893L144.05 42.2485ZM138.141 30.0656L138.687 26.103L138.687 26.103L138.141 30.0656ZM130.413 39.1766L134.404 39.4553L134.404 39.4553L130.413 39.1766ZM129.005 58.3671C130.006 56.5401 131.202 53.9106 132.57 50.0948L125.04 47.3948C123.77 50.9357 122.737 53.1591 121.99 54.5211L129.005 58.3671ZM120.223 59.8145L125 60.4131L125.995 52.4751L121.217 51.8766L120.223 59.8145ZM111.272 59.8145C114.244 59.4422 117.251 59.4422 120.223 59.8145L121.217 51.8766C117.585 51.4215 113.91 51.4215 110.278 51.8766L111.272 59.8145ZM107.977 60.2273L111.272 59.8145L110.278 51.8766L106.983 52.2893L107.977 60.2273ZM100.884 50.8168C102.016 53.9733 103.028 56.3149 103.909 58.0601L111.051 54.4566C110.351 53.068 109.463 51.0398 108.415 48.1167L100.884 50.8168ZM99.0505 40.1773C99.2523 43.067 99.5021 46.9624 100.884 50.8168L108.415 48.1167C107.461 45.4578 107.242 42.6455 107.031 39.6198L99.0505 40.1773ZM95.8584 34.7502C97.2661 34.5565 97.9045 34.6932 98.112 34.7654C98.1939 34.7939 98.1776 34.7779 98.2282 34.8621C98.35 35.0653 98.5402 35.5362 98.7016 36.5318C98.8615 37.5183 98.9458 38.6789 99.0505 40.1773L107.031 39.6198C106.933 38.2178 106.828 36.6686 106.599 35.252C106.37 33.8445 105.971 32.2189 105.09 30.7486C104.137 29.1593 102.704 27.8927 100.741 27.2099C98.9046 26.5707 96.8718 26.5353 94.7677 26.8249L95.8584 34.7502ZM93.3528 42.3297C93.0726 40.6033 92.8573 39.2571 92.773 38.0953C92.6881 36.9261 92.7694 36.2932 92.8752 35.9552C92.94 35.7481 92.9988 35.6586 93.2026 35.5226C93.5145 35.3146 94.2596 34.9703 95.8584 34.7502L94.7677 26.8249C92.5098 27.1357 90.4518 27.7408 88.7625 28.8679C86.9651 30.0672 85.8246 31.6987 85.2403 33.5658C84.697 35.302 84.6794 37.0963 84.794 38.6746C84.9091 40.2604 85.1917 41.9822 85.4561 43.6113L93.3528 42.3297ZM93.2276 41.7942L93.2276 41.7941L85.5813 44.1468L85.5813 44.1469L93.2276 41.7942ZM94.3607 51.3187C94.2633 47.9106 93.7577 44.8247 93.3528 42.3298L85.4561 43.6113C85.8678 46.1482 86.2838 48.7407 86.364 51.5473L94.3607 51.3187ZM89.6293 66.3379C92.2954 64.0812 94.5984 59.6343 94.3607 51.3188L86.364 51.5473C86.5583 58.3463 84.6684 60.0559 84.4606 60.2319L89.6293 66.3379ZM77.3512 49.4679C80.9877 54.3958 82.8348 59.5325 83.0509 63.5023L91.0391 63.0675C90.7208 57.2211 88.1429 50.6189 83.7883 44.7178L77.3512 49.4679ZM59.2728 39.9281C60.4913 39.0289 62.8681 38.6447 66.5179 40.2456C70.0528 41.7961 74.0158 44.948 77.3512 49.4679L83.7883 44.7178C79.7747 39.2788 74.764 35.1268 69.7314 32.9194C64.8135 30.7622 59.0288 30.1658 54.5226 33.4911L59.2728 39.9281ZM63.0574 60.0158C59.7219 55.4958 57.8788 50.7796 57.4396 46.9447C56.9862 42.9851 58.0542 40.8274 59.2728 39.9281L54.5226 33.4911C50.0165 36.8163 48.8806 42.5197 49.4916 47.8549C50.1169 53.3148 52.6067 59.327 56.6203 64.766L63.0574 60.0158ZM77.4524 70.2737C73.4342 69.7851 67.7223 66.3375 63.0574 60.0158L56.6203 64.766C62.0637 72.1425 69.5339 77.3699 76.4869 78.2152L77.4524 70.2737ZM74.5259 93.2552C75.0336 87.0784 77.089 81.3441 80.312 76.4419L73.6273 72.047C69.6862 78.0415 67.1728 85.0568 66.5528 92.5998L74.5259 93.2552ZM73.3294 107.811L74.5259 93.2552L66.5528 92.5998L65.3563 107.155L73.3294 107.811ZM75.8805 124.576C73.7559 119.233 72.8616 113.5 73.3294 107.811L65.3563 107.155C64.7841 114.115 65.8816 121.081 68.4467 127.532L75.8805 124.576ZM89.0514 159.94C84.8268 147.431 79.3974 133.42 75.8805 124.576L68.4467 127.532C71.9489 136.339 77.316 150.194 81.472 162.5L89.0514 159.94ZM93.2077 173.903C92.0884 169.826 90.7825 165.066 89.0514 159.94L81.472 162.5C83.1195 167.378 84.3697 171.929 85.4931 176.021L93.2077 173.903ZM98.2841 187.393C97.9992 187.218 97.2375 186.426 96.2099 183.786C95.2457 181.309 94.3431 178.039 93.2077 173.903L85.4931 176.021C86.5887 180.012 87.607 183.739 88.7547 186.688C89.8391 189.474 91.3804 192.538 94.0908 194.206L98.2841 187.393ZM131.473 187.535C122.362 193.987 107.753 193.221 98.2841 187.393L94.0908 194.206C105.7 201.352 123.846 202.739 136.096 194.064L131.473 187.535ZM135.125 176.642C134.326 179.979 133.691 182.615 132.974 184.645C132.211 186.807 131.63 187.424 131.473 187.535L136.096 194.064C138.425 192.415 139.678 189.686 140.518 187.308C141.404 184.797 142.141 181.7 142.906 178.504L135.125 176.642ZM140.005 159.806C137.675 165.973 136.269 171.863 135.125 176.642L142.906 178.504C144.058 173.692 145.361 168.265 147.488 162.634L140.005 159.806ZM155.004 126.367C150.595 135.148 144.494 147.925 140.005 159.806L147.488 162.634C151.831 151.14 157.787 138.654 162.154 129.957L155.004 126.367ZM159.017 105.14C159.789 112.394 158.326 119.753 155.004 126.367L162.154 129.957C166.115 122.069 167.917 113.177 166.972 104.293L159.017 105.14ZM157.671 92.493L159.017 105.14L166.972 104.293L165.626 91.6464L157.671 92.493ZM151.905 76.4473C155.009 81.1375 157.043 86.5987 157.671 92.493L165.626 91.6464C164.86 84.4484 162.372 77.7676 158.576 72.0321L151.905 76.4473ZM155.631 78.2206C162.816 77.5151 170.666 72.0095 176.372 64.2764L169.935 59.5262C164.967 66.2588 158.931 69.8581 154.849 70.2589L155.631 78.2206ZM176.372 64.2764C180.475 58.7163 183.053 52.598 183.751 47.0648C184.431 41.6788 183.381 35.8694 178.831 32.5118L174.081 38.9489C175.256 39.8158 176.33 41.9772 175.814 46.0632C175.317 50.002 173.381 54.857 169.935 59.5262L176.372 64.2764ZM178.831 32.5118C174.281 29.1543 168.421 29.8646 163.475 32.1023C158.394 34.4011 153.307 38.6681 149.204 44.2282L155.641 48.9783C159.087 44.3091 163.155 41.0274 166.772 39.391C170.525 37.6935 172.906 38.082 174.081 38.9489L178.831 32.5118ZM149.204 44.2282C144.966 49.9721 142.349 56.3206 141.76 62.0074L149.718 62.8314C150.132 58.8331 152.076 53.8104 155.641 48.9783L149.204 44.2282ZM139.094 50.5968C138.904 57.2307 140.494 61.7044 142.39 64.6071L149.088 60.2317C148.182 58.8453 146.942 56.017 147.09 50.8254L139.094 50.5968ZM140.101 41.6078C139.697 44.1027 139.191 47.1886 139.094 50.5968L147.09 50.8254C147.17 48.0188 147.586 45.4262 147.998 42.8893L140.101 41.6078ZM137.596 34.0283C139.195 34.2483 139.94 34.5926 140.252 34.8007C140.455 34.9366 140.514 35.0261 140.579 35.2332C140.685 35.5712 140.766 36.2042 140.681 37.3734C140.597 38.5352 140.382 39.8813 140.101 41.6078L147.998 42.8893C148.263 41.2603 148.545 39.5384 148.66 37.9527C148.775 36.3743 148.757 34.58 148.214 32.8439C147.63 30.9768 146.489 29.3452 144.692 28.146C143.002 27.0188 140.944 26.4137 138.687 26.103L137.596 34.0283ZM134.404 39.4553C134.508 37.957 134.593 36.7964 134.753 35.8099C134.914 34.8143 135.104 34.3434 135.226 34.1402C135.277 34.0559 135.26 34.072 135.342 34.0435C135.55 33.9713 136.188 33.8345 137.596 34.0283L138.687 26.103C136.582 25.8134 134.55 25.8487 132.713 26.4879C130.751 27.1707 129.318 28.4374 128.365 30.0266C127.483 31.4969 127.084 33.1225 126.856 34.53C126.626 35.9467 126.521 37.4959 126.423 38.8978L134.404 39.4553ZM132.57 50.0948C133.952 46.2404 134.202 42.345 134.404 39.4553L126.423 38.8978C126.212 41.9235 125.993 44.7358 125.04 47.3947L132.57 50.0948Z" fill="black" mask="url(#path-6-outside-1_10_2)"/>
<mask id="mask0_10_2" style="mask-type:alpha" maskUnits="userSpaceOnUse" x="53" y="34" width="127" height="163">
<path fill-rule="evenodd" clip-rule="evenodd" d="M145.636 64.1245C145.717 58.9474 148.052 52.526 152.423 46.6033C159.971 36.3739 170.732 31.506 176.456 35.7304C182.181 39.9548 180.702 51.672 173.154 61.9013C167.816 69.1342 160.874 73.6866 155.24 74.2398C158.69 79.4526 160.952 85.5236 161.648 92.0697L162.994 104.717C163.853 112.785 162.22 120.911 158.579 128.162C154.191 136.901 148.162 149.532 143.747 161.22C141.518 167.119 140.163 172.777 139.015 177.573C137.452 184.106 136.271 189.039 133.785 190.8C123.104 198.363 106.727 197.286 96.1874 190.8C93.1922 188.956 91.5814 183.089 89.3504 174.962L89.3504 174.962C88.229 170.877 86.951 166.222 85.2617 161.22C81.0714 148.812 75.6732 134.88 72.1636 126.054C69.8187 120.157 68.8229 113.808 69.3428 107.483L70.5393 92.9276C71.1032 86.0676 73.3876 79.6929 76.9697 74.2444C71.4841 73.5775 64.893 69.24 59.8388 62.3909C52.4898 52.432 51.173 40.9341 56.8977 36.7096C62.6224 32.4852 73.2207 37.1339 80.5698 47.0929C84.6837 52.6678 86.9073 58.725 87.0636 63.7185C92.3495 59.9169 98.6127 57.3693 105.432 56.5149L110.775 55.8456C114.077 55.4319 117.418 55.4319 120.72 55.8456L126.845 56.613C133.841 57.4895 140.258 60.1501 145.636 64.1245Z" fill="#D9D9D9"/>
</mask>
<g mask="url(#mask0_10_2)">
<rect x="46.2914" y="29.3476" width="139.491" height="174.637" fill="#FFD53F"/>
<path d="M155.188 135.585C162.757 136.955 159.303 141.525 157.067 145.717C156.366 149.591 154.227 151.769 150.353 151.068C146.479 150.367 146.202 145.203 146.903 141.329C147.605 137.455 151.314 134.883 155.188 135.585Z" fill="#B76334"/>
<path d="M164.125 112.064C171.695 113.434 168.241 118.004 166.005 122.196C165.303 126.07 163.164 128.248 159.29 127.547C155.416 126.846 155.139 121.682 155.841 117.808C156.542 113.935 160.251 111.363 164.125 112.064Z" fill="#B76334"/>
<path d="M138.66 125.113C138.66 123.623 140.957 120.581 143.582 121.832C145.728 121.832 147.08 124.463 146.722 126.604C146.365 128.745 143.71 128.922 141.311 128.521C139.921 128.289 138.66 126.604 138.66 125.113Z" fill="#B76334"/>
<path d="M75.3394 135.585C67.7695 136.955 71.2235 141.525 73.4598 145.717C74.1611 149.591 76.3003 151.769 80.1743 151.068C84.0483 150.367 84.325 145.203 83.6237 141.329C82.9224 137.455 79.2134 134.883 75.3394 135.585Z" fill="#B76334"/>
<path d="M66.4018 112.064C58.832 113.434 62.2859 118.004 64.5222 122.196C65.2236 126.07 67.3628 128.248 71.2367 127.547C75.1107 126.846 75.3874 121.682 74.6861 117.808C73.9848 113.935 70.2758 111.363 66.4018 112.064Z" fill="#B76334"/>
<path d="M91.8665 125.113C91.8665 123.623 89.5698 120.581 86.9448 121.832C84.7994 121.832 83.4472 124.463 83.8048 126.604C84.1624 128.745 86.8165 128.922 89.2163 128.521C90.606 128.289 91.8665 126.604 91.8665 125.113Z" fill="#B76334"/>
<path d="M101.945 151.309L91.6265 163.518C87.9463 167.873 86.8616 173.858 88.7793 179.227L91.873 187.889C94.4044 194.977 101.534 199.343 108.998 198.375L124.257 196.397C130.293 195.615 135.362 191.476 137.335 185.719L139.707 178.803C141.47 173.661 140.501 167.974 137.134 163.706L127.687 151.727C124.652 147.881 120.023 145.636 115.124 145.636H114.165C109.455 145.636 104.985 147.711 101.945 151.309Z" fill="#B76334"/>
<circle cx="99.249" cy="172.22" r="2.22104" fill="black"/>
<circle cx="129.766" cy="172.22" r="2.22104" fill="black"/>
</g>
<path d="M88.6664 36.9018C88.5633 40.675 89.7443 45.4808 89.7443 45.4808L90.1906 49.0436C90.1906 49.0436 91.6721 47.1632 97.0881 46.7252C102.504 46.2873 103.984 47.299 103.984 47.299L103.438 43.222C103.438 43.222 103.248 38.4558 103.025 36.9018C102.803 35.3479 102.841 33.5798 101.77 32.5093C100.7 31.4389 100.072 30.7744 96.8609 30.5161C93.6495 30.2577 91.2503 31.7711 91.2503 31.7711C91.2503 31.7711 88.7695 33.1287 88.6664 36.9018Z" fill="#B76334"/>
<path d="M144.806 36.0234C144.909 39.7966 143.728 44.6024 143.728 44.6024L143.282 48.1652C143.282 48.1652 141.8 46.2847 136.384 45.8468C130.968 45.4089 129.488 46.4206 129.488 46.4206L130.035 42.3436C130.035 42.3436 130.225 37.5774 130.447 36.0234C130.67 34.4695 130.632 32.7013 131.702 31.6309C132.773 30.5604 133.4 29.896 136.611 29.6376C139.823 29.3793 142.222 30.8927 142.222 30.8927C142.222 30.8927 144.703 32.2502 144.806 36.0234Z" fill="#B76334"/>
<path d="M87.1316 102.001C87.1316 104.639 84.9932 106.777 82.3553 106.777C79.7174 106.777 77.5789 104.639 77.5789 102.001C77.5789 99.3628 79.7174 97.2244 82.3553 97.2244C84.9932 97.2244 87.1316 99.3628 87.1316 102.001Z" fill="black"/>
<circle cx="149.12" cy="102.001" r="4.77634" fill="black"/>
<ellipse cx="164.045" cy="58.3462" rx="16.5744" ry="6.39872" transform="rotate(-53.9615 164.045 58.3462)" fill="#B76334"/>
<ellipse cx="15.4558" cy="6.39872" rx="15.4558" ry="6.39872" transform="matrix(-0.588329 -0.808622 -0.808622 0.588329 82.8983 67.9841)" fill="#B76334"/>
<path d="M36.4962 173.273L38.7053 176.027C39.2063 176.652 39.5324 177.253 39.6833 177.831C39.8373 178.413 39.814 178.962 39.6134 179.476C39.4198 179.991 39.047 180.459 38.4952 180.879C38.1066 181.174 37.6883 181.367 37.2405 181.456C36.7996 181.546 36.3504 181.532 35.8928 181.414C35.4421 181.297 35.0019 181.08 34.5723 180.762L34.2024 180.547L32.1263 177.959L33.0323 177.251L34.5997 179.205C34.9175 179.601 35.2517 179.878 35.6025 180.034C35.9571 180.187 36.3083 180.239 36.6562 180.189C37.0041 180.139 37.3238 180.003 37.6152 179.782C37.9417 179.533 38.1769 179.253 38.3209 178.941C38.4649 178.629 38.4945 178.288 38.4097 177.917C38.3319 177.547 38.1234 177.151 37.7842 176.728L36.4597 175.077L28.8932 180.832L28.0087 179.73L36.4962 173.273ZM31.9088 184.592L34.1338 179.643L35.0609 180.786L32.9229 185.715L32.853 185.768L31.9088 184.592Z" fill="white"/>
<path d="M33.6252 168.567L24.4744 174.042L23.7175 172.848L32.8684 167.373L33.6252 168.567Z" fill="white"/>
<path d="M25.4232 165.103L21.8959 166.776C21.6598 166.742 21.3665 166.649 21.0158 166.496C20.6695 166.342 20.3001 166.077 19.9075 165.701C19.5215 165.328 19.1488 164.786 18.7894 164.076C18.4961 163.496 18.3274 162.915 18.2834 162.33C18.246 161.748 18.3332 161.186 18.5451 160.642C18.7635 160.101 19.1055 159.599 19.571 159.135C20.0431 158.673 20.6387 158.272 21.3578 157.931L22.1057 157.576C22.8248 157.235 23.5086 157.014 24.1572 156.911C24.8079 156.814 25.4123 156.835 25.9703 156.975C26.5328 157.114 27.0356 157.372 27.479 157.751C27.9267 158.128 28.306 158.623 28.6169 159.237C28.9852 159.965 29.1649 160.633 29.1559 161.242C29.1537 161.854 28.9992 162.403 28.6925 162.888C28.388 163.379 27.9711 163.798 27.4416 164.146L26.8032 162.885C27.1231 162.663 27.3834 162.399 27.5842 162.093C27.7872 161.792 27.8964 161.445 27.9119 161.054C27.9318 160.661 27.8183 160.221 27.5713 159.733C27.3486 159.293 27.074 158.951 26.7476 158.706C26.4212 158.461 26.0528 158.306 25.6426 158.241C25.2323 158.176 24.7845 158.194 24.2992 158.295C23.8161 158.399 23.3033 158.581 22.7606 158.838L21.9995 159.199C21.4436 159.462 20.9793 159.761 20.6065 160.094C20.2358 160.432 19.9567 160.794 19.7692 161.18C19.5861 161.564 19.4989 161.959 19.5076 162.366C19.5186 162.776 19.6266 163.184 19.8317 163.59C20.0588 164.038 20.2805 164.384 20.4966 164.628C20.7171 164.869 20.92 165.043 21.1053 165.149C21.295 165.254 21.4593 165.324 21.5983 165.361L23.7557 164.338L22.641 162.136L23.6734 161.646L25.4232 165.103Z" fill="white"/>
<path d="M53.2524 191.107L46.1407 199.053L45.0614 198.14L52.1731 190.194L53.2524 191.107ZM53.4643 197.567L52.6925 198.429L49.0465 195.345L49.8182 194.483L53.4643 197.567ZM57.2172 194.46L56.4455 195.323L52.2458 191.771L53.0175 190.908L57.2172 194.46Z" fill="white"/>
<path d="M62.9805 198.144L56.9057 206.909L55.7224 206.136L61.7973 197.371L62.9805 198.144ZM63.9876 204.531L63.3283 205.483L59.331 202.87L59.9902 201.919L63.9876 204.531ZM67.3274 200.985L66.6681 201.936L62.0638 198.927L62.723 197.976L67.3274 200.985Z" fill="white"/>
<path d="M73.9105 215.315L73.3721 216.331L68.3179 213.812L68.8563 212.796L73.9105 215.315ZM73.5667 204.517L68.5736 213.94L67.3084 213.309L72.3016 203.886L73.5667 204.517ZM75.5498 210.626L75.0114 211.642L70.6259 209.457L71.1643 208.441L75.5498 210.626ZM78.2997 206.875L77.7578 207.898L72.7692 205.412L73.3111 204.389L78.2997 206.875Z" fill="white"/>
<path d="M92.6119 212.209L86.5178 220.636L85.1241 220.263L91.9956 211.066L92.8941 211.307L92.6119 212.209ZM92.7857 222.316L92.053 212.059L92.2928 211.145L93.1912 211.386L94.1864 222.692L92.7857 222.316ZM93.6991 218.475L93.3795 219.587L87.5927 218.036L87.9123 216.924L93.6991 218.475Z" fill="white"/>
<path d="M101.63 213.326L105.145 213.656C105.942 213.731 106.603 213.916 107.127 214.21C107.656 214.505 108.039 214.904 108.277 215.407C108.52 215.905 108.606 216.499 108.534 217.189C108.484 217.675 108.338 218.11 108.097 218.494C107.861 218.874 107.544 219.188 107.146 219.435C106.752 219.677 106.293 219.843 105.769 219.931L105.359 220.047L102.056 219.737L102.16 218.592L104.654 218.826C105.159 218.873 105.589 218.825 105.942 218.682C106.296 218.534 106.574 218.317 106.775 218.032C106.977 217.747 107.096 217.422 107.134 217.058C107.176 216.65 107.133 216.285 107.004 215.964C106.876 215.643 106.647 215.384 106.319 215.186C105.996 214.984 105.565 214.858 105.026 214.807L102.918 214.61L101.939 224.066L100.532 223.934L101.63 213.326ZM106.737 224.516L104.654 219.466L106.12 219.596L108.248 224.57L108.239 224.657L106.737 224.516Z" fill="white"/>
<path d="M120.821 221.773L122.227 221.769C122.153 222.443 121.96 223.046 121.646 223.579C121.333 224.113 120.891 224.536 120.319 224.851C119.748 225.16 119.035 225.316 118.18 225.319C117.555 225.32 116.986 225.205 116.474 224.972C115.966 224.739 115.53 224.409 115.164 223.98C114.798 223.547 114.516 223.027 114.316 222.423C114.122 221.813 114.025 221.134 114.026 220.387L114.027 219.325C114.028 218.578 114.126 217.902 114.322 217.296C114.523 216.685 114.809 216.161 115.181 215.726C115.558 215.29 116.01 214.954 116.537 214.718C117.065 214.482 117.658 214.363 118.317 214.361C119.123 214.359 119.804 214.508 120.36 214.809C120.917 215.11 121.348 215.529 121.655 216.065C121.967 216.596 122.159 217.213 122.232 217.916L120.825 217.92C120.758 217.423 120.631 216.996 120.446 216.64C120.261 216.279 119.998 216.001 119.656 215.807C119.314 215.613 118.868 215.517 118.316 215.518C117.842 215.52 117.425 215.611 117.063 215.793C116.707 215.975 116.406 216.232 116.162 216.565C115.922 216.898 115.741 217.296 115.618 217.76C115.496 218.225 115.434 218.74 115.433 219.306L115.432 220.383C115.431 220.906 115.485 221.396 115.591 221.855C115.703 222.313 115.871 222.716 116.095 223.062C116.32 223.408 116.605 223.68 116.951 223.879C117.298 224.074 117.708 224.17 118.181 224.169C118.782 224.167 119.261 224.07 119.617 223.879C119.974 223.687 120.243 223.413 120.424 223.056C120.61 222.699 120.742 222.271 120.821 221.773Z" fill="white"/>
<path d="M135.173 217.542L135.318 218.683L129.591 219.397L129.446 218.257L135.173 217.542ZM129.084 213.681L130.433 224.26L129.03 224.435L127.681 213.856L129.084 213.681ZM135.814 212.842L137.163 223.42L135.767 223.594L134.419 213.016L135.814 212.842Z" fill="white"/>
<path d="M150.475 218.933L150.765 220.045L145.287 221.416L144.997 220.303L150.475 218.933ZM142.878 211.026L145.564 221.346L144.193 221.689L141.507 211.369L142.878 211.026ZM148.509 214.344L148.799 215.456L144.045 216.645L143.756 215.533L148.509 214.344ZM148.008 209.743L148.3 210.863L142.892 212.215L142.601 211.095L148.008 209.743Z" fill="white"/>
<path d="M152.376 208.028L155.648 206.705C156.391 206.404 157.065 206.263 157.672 206.281C158.283 206.298 158.816 206.472 159.27 206.805C159.726 207.131 160.09 207.613 160.36 208.252C160.55 208.701 160.632 209.15 160.604 209.598C160.58 210.04 160.45 210.461 160.217 210.861C159.986 211.254 159.659 211.61 159.237 211.928L158.931 212.218L155.855 213.462L155.393 212.409L157.715 211.47C158.186 211.279 158.543 211.04 158.787 210.752C159.029 210.459 159.17 210.142 159.21 209.799C159.25 209.456 159.199 209.116 159.056 208.779C158.896 208.401 158.682 208.101 158.412 207.878C158.143 207.655 157.815 207.532 157.429 207.509C157.045 207.48 156.602 207.567 156.1 207.77L154.137 208.564L157.846 217.317L156.535 217.847L152.376 208.028ZM162.314 215.511L158.024 212.032L159.386 211.473L163.678 214.864L163.713 214.945L162.314 215.511Z" fill="white"/>
<path d="M163.864 202.956L168.985 206.235L168.711 200.263L170.113 199.485L170.268 207.038L172.278 210.478L171.042 211.165L169.032 207.724L162.449 203.742L163.864 202.956Z" fill="white"/>
<path d="M187.616 194.689L188.682 193.772C189.08 194.319 189.339 194.891 189.459 195.489C189.58 196.087 189.529 196.688 189.306 197.292C189.079 197.892 188.642 198.471 187.994 199.028C187.52 199.435 187.01 199.719 186.464 199.88C185.921 200.037 185.366 200.076 184.8 199.997C184.23 199.914 183.666 199.713 183.107 199.395C182.549 199.071 182.019 198.632 181.517 198.079L180.803 197.292C180.301 196.739 179.92 196.175 179.662 195.599C179.403 195.017 179.269 194.443 179.258 193.88C179.251 193.313 179.369 192.771 179.611 192.253C179.854 191.736 180.225 191.263 180.724 190.833C181.335 190.308 181.954 189.976 182.579 189.837C183.205 189.698 183.815 189.727 184.409 189.925C185.004 190.115 185.565 190.447 186.093 190.92L185.027 191.836C184.64 191.512 184.257 191.278 183.876 191.136C183.493 190.989 183.106 190.955 182.715 191.033C182.325 191.111 181.921 191.33 181.502 191.69C181.143 191.999 180.887 192.338 180.735 192.707C180.586 193.073 180.53 193.459 180.568 193.864C180.61 194.265 180.741 194.678 180.96 195.101C181.179 195.524 181.479 195.945 181.859 196.365L182.583 197.162C182.934 197.549 183.305 197.877 183.695 198.147C184.088 198.414 184.487 198.602 184.89 198.713C185.293 198.823 185.694 198.839 186.091 198.761C186.485 198.68 186.862 198.485 187.221 198.176C187.677 197.785 187.975 197.402 188.118 197.029C188.26 196.655 188.28 196.278 188.177 195.896C188.078 195.511 187.891 195.109 187.616 194.689Z" fill="white"/>
<path d="M199.044 186.643L199.899 187.412L196.222 191.273L195.367 190.504L199.044 186.643ZM188.489 183.936L196.414 191.072L195.439 192.095L187.514 184.96L188.489 183.936Z" fill="white"/>
<path d="M197.738 172.666L198.563 171.527L204.52 175.597C205.181 176.049 205.627 176.569 205.857 177.158C206.087 177.747 206.14 178.357 206.015 178.987C205.889 179.61 205.624 180.2 205.22 180.758C204.796 181.343 204.304 181.799 203.742 182.124C203.18 182.443 202.578 182.591 201.939 182.568C201.301 182.54 200.652 182.301 199.991 181.849L194.035 177.779L194.855 176.646L200.812 180.716C201.271 181.03 201.711 181.206 202.129 181.244C202.548 181.281 202.937 181.202 203.297 181.004C203.66 180.803 203.985 180.505 204.271 180.109C204.56 179.71 204.74 179.312 204.81 178.916C204.882 178.517 204.829 178.132 204.651 177.762C204.473 177.392 204.155 177.05 203.695 176.736L197.738 172.666Z" fill="white"/>
<path d="M208.531 166.251L207.11 168.55L206.122 167.99L207.412 165.903C207.625 165.559 207.753 165.223 207.794 164.897C207.835 164.57 207.789 164.273 207.657 164.003C207.524 163.728 207.303 163.5 206.995 163.32C206.658 163.123 206.344 163.028 206.053 163.033C205.761 163.033 205.486 163.135 205.227 163.34C204.967 163.538 204.713 163.837 204.467 164.235L203.373 166.004L211.584 170.796L210.84 171.998L201.63 166.624L203.467 163.652C203.755 163.187 204.06 162.8 204.383 162.491C204.702 162.18 205.041 161.956 205.4 161.821C205.757 161.679 206.131 161.632 206.521 161.679C206.911 161.725 207.321 161.874 207.751 162.125C208.131 162.347 208.415 162.643 208.605 163.014C208.791 163.382 208.875 163.793 208.859 164.247C208.845 164.696 208.725 165.163 208.5 165.648L208.531 166.251ZM212.805 168.821L211.125 171.537L210.552 170.279L211.812 168.242C212.048 167.86 212.181 167.496 212.21 167.152C212.242 166.803 212.179 166.487 212.022 166.203C211.861 165.916 211.611 165.675 211.274 165.478C210.932 165.278 210.6 165.166 210.276 165.142C209.953 165.117 209.644 165.194 209.35 165.373C209.056 165.551 208.783 165.844 208.531 166.251L207.472 167.964L206.499 167.38L207.948 165.037L208.46 164.989C208.767 164.575 209.123 164.279 209.525 164.101C209.923 163.921 210.336 163.848 210.762 163.882C211.191 163.912 211.604 164.043 212.001 164.274C212.574 164.609 212.982 165.017 213.224 165.497C213.465 165.971 213.55 166.493 213.479 167.062C213.405 167.628 213.18 168.215 212.805 168.821Z" fill="white"/>
<path d="M46.3301 185.421L36.7671 189.588L35.7488 188.566L46.3766 184.13L47.0331 184.789L46.3301 185.421ZM41.347 194.185L45.9218 185.011L46.5937 184.348L47.2502 185.007L42.3705 195.213L41.347 194.185ZM44.09 191.347L43.2481 192.141L39.0197 187.897L39.8617 187.103L44.09 191.347Z" fill="white"/>
</svg>
