<svg width="234" height="234" viewBox="0 0 234 234" fill="none" xmlns="http://www.w3.org/2000/svg">
<circle cx="116.617" cy="116.536" r="114.536" fill="#DF3D3D" stroke="black" stroke-width="4"/>
<circle cx="116.617" cy="116.536" r="93.9622" fill="white"/>
<circle cx="116.617" cy="116.536" r="73.886" fill="#DF3D3D"/>
<circle cx="116.617" cy="116.536" r="53.4632" fill="white"/>
<circle cx="116.617" cy="116.536" r="34.427" fill="#DF3D3D"/>
<mask id="path-6-outside-1_8_181" maskUnits="userSpaceOnUse" x="43.5357" y="40.4315" width="143" height="141" fill="black">
<rect fill="white" x="43.5357" y="40.4315" width="143" height="141"/>
<path fill-rule="evenodd" clip-rule="evenodd" d="M71.8261 52.5248C74.7888 56.5398 75.8831 61.256 75.1794 65.3392C80.8698 61.0112 87.7513 58.1805 95.2351 57.3996L111.948 55.6557C114.708 55.3678 117.49 55.3678 120.25 55.6557L136.81 57.3837C143.334 58.0644 149.398 60.3019 154.615 63.73C154.407 60.0507 155.57 56.0217 158.15 52.5248C163.286 45.5659 172.089 43.3491 177.814 47.5736C183.539 51.798 184.017 60.8639 178.881 67.8229C175.502 72.4019 170.535 74.9277 165.901 74.9162C169.012 79.5602 171.181 84.9044 172.131 90.6875L180.878 143.969C181.517 147.862 181.66 151.875 180.229 155.55C178.412 160.219 174.671 166.746 167.183 171.162C154.36 178.725 81.4428 177.649 68.7887 171.162C63.2476 168.322 58.9395 163.88 55.8471 159.785C51.279 153.735 50.5823 145.871 51.8467 138.397L59.9467 90.5121C60.9284 84.7084 63.1385 79.3523 66.2952 74.7083C61.0949 75.6931 55.0223 73.1447 51.0951 67.8229C45.9599 60.8639 46.4377 51.798 52.1624 47.5736C57.8871 43.3491 66.6908 45.5659 71.8261 52.5248Z"/>
</mask>
<path fill-rule="evenodd" clip-rule="evenodd" d="M71.8261 52.5248C74.7888 56.5398 75.8831 61.256 75.1794 65.3392C80.8698 61.0112 87.7513 58.1805 95.2351 57.3996L111.948 55.6557C114.708 55.3678 117.49 55.3678 120.25 55.6557L136.81 57.3837C143.334 58.0644 149.398 60.3019 154.615 63.73C154.407 60.0507 155.57 56.0217 158.15 52.5248C163.286 45.5659 172.089 43.3491 177.814 47.5736C183.539 51.798 184.017 60.8639 178.881 67.8229C175.502 72.4019 170.535 74.9277 165.901 74.9162C169.012 79.5602 171.181 84.9044 172.131 90.6875L180.878 143.969C181.517 147.862 181.66 151.875 180.229 155.55C178.412 160.219 174.671 166.746 167.183 171.162C154.36 178.725 81.4428 177.649 68.7887 171.162C63.2476 168.322 58.9395 163.88 55.8471 159.785C51.279 153.735 50.5823 145.871 51.8467 138.397L59.9467 90.5121C60.9284 84.7084 63.1385 79.3523 66.2952 74.7083C61.0949 75.6931 55.0223 73.1447 51.0951 67.8229C45.9599 60.8639 46.4377 51.798 52.1624 47.5736C57.8871 43.3491 66.6908 45.5659 71.8261 52.5248Z" fill="#D9D9D9"/>
<path d="M75.1794 65.3392L71.2376 64.6598L69.5114 74.6757L77.601 68.5229L75.1794 65.3392ZM71.8261 52.5248L68.6075 54.8999V54.8999L71.8261 52.5248ZM95.2351 57.3996L94.82 53.4212L95.2351 57.3996ZM111.948 55.6557L112.363 59.6341L111.948 55.6557ZM120.25 55.6557L120.665 51.6773L120.25 55.6557ZM136.81 57.3837L136.395 61.3621L136.81 57.3837ZM154.615 63.73L152.418 67.0728L159.056 71.4349L158.608 63.5044L154.615 63.73ZM158.15 52.5248L161.369 54.8999V54.8999L158.15 52.5248ZM177.814 47.5736L180.189 44.355V44.355L177.814 47.5736ZM178.881 67.8229L175.663 65.4478V65.4478L178.881 67.8229ZM165.901 74.9162L165.911 70.9162L158.395 70.8976L162.578 77.1424L165.901 74.9162ZM172.131 90.6875L176.078 90.0395H176.078L172.131 90.6875ZM180.878 143.969L184.825 143.321V143.321L180.878 143.969ZM180.229 155.55L176.501 154.099V154.099L180.229 155.55ZM167.183 171.162L169.215 174.607L167.183 171.162ZM68.7887 171.162L66.9639 174.722L68.7887 171.162ZM55.8471 159.785L52.6549 162.195H52.6549L55.8471 159.785ZM51.8467 138.397L47.9027 137.73H47.9027L51.8467 138.397ZM59.9467 90.5121L56.0027 89.845L59.9467 90.5121ZM66.2952 74.7083L69.6033 76.9569L75.0224 68.9843L65.5508 70.7781L66.2952 74.7083ZM51.0951 67.8229L54.3137 65.4478L51.0951 67.8229ZM52.1624 47.5736L49.7874 44.355V44.355L52.1624 47.5736ZM79.1213 66.0185C80.0256 60.7718 78.5987 54.966 75.0446 50.1498L68.6075 54.8999C70.9789 58.1135 71.7407 61.7402 71.2376 64.6598L79.1213 66.0185ZM94.82 53.4212C86.5894 54.2801 79.0173 57.3947 72.7579 62.1554L77.601 68.5229C82.7224 64.6276 88.9132 62.081 95.6503 61.378L94.82 53.4212ZM111.533 51.6773L94.82 53.4212L95.6503 61.378L112.363 59.6341L111.533 51.6773ZM120.665 51.6773C117.629 51.3606 114.569 51.3606 111.533 51.6773L112.363 59.6341C114.847 59.375 117.351 59.375 119.835 59.6341L120.665 51.6773ZM137.226 53.4053L120.665 51.6773L119.835 59.6341L136.395 61.3621L137.226 53.4053ZM156.811 60.3871C151.072 56.6156 144.399 54.1538 137.226 53.4053L136.395 61.3621C142.269 61.975 147.724 63.9883 152.418 67.0728L156.811 60.3871ZM154.932 50.1498C151.83 54.3527 150.358 59.2923 150.621 63.9555L158.608 63.5044C158.456 60.8091 159.309 57.6908 161.369 54.8999L154.932 50.1498ZM180.189 44.355C172.128 38.4062 160.924 42.0296 154.932 50.1498L161.369 54.8999C165.647 49.1022 172.051 48.2921 175.439 50.7921L180.189 44.355ZM182.1 70.1979C188.092 62.0778 188.251 50.3039 180.189 44.355L175.439 50.7921C178.827 53.2921 179.941 59.6501 175.663 65.4478L182.1 70.1979ZM165.892 78.9162C171.948 78.9313 178.058 75.6748 182.1 70.1979L175.663 65.4478C172.946 69.129 169.122 70.9242 165.911 70.9162L165.892 78.9162ZM176.078 90.0395C175.034 83.6807 172.648 77.8 169.225 72.69L162.578 77.1424C165.377 81.3205 167.329 86.1282 168.184 91.3355L176.078 90.0395ZM184.825 143.321L176.078 90.0395L168.184 91.3355L176.931 144.617L184.825 143.321ZM183.957 157.001C185.772 152.337 185.508 147.478 184.825 143.321L176.931 144.617C177.527 148.245 177.548 151.412 176.501 154.099L183.957 157.001ZM169.215 174.607C177.725 169.589 181.937 162.189 183.957 157.001L176.501 154.099C174.886 158.249 171.616 163.904 165.151 167.717L169.215 174.607ZM66.9639 174.722C69.0685 175.8 72.0522 176.61 75.3515 177.259C78.744 177.927 82.8123 178.487 87.294 178.942C96.2632 179.852 107.095 180.363 117.897 180.431C128.697 180.499 139.553 180.125 148.567 179.246C153.07 178.807 157.176 178.236 160.615 177.514C163.955 176.813 167.028 175.898 169.215 174.607L165.151 167.717C164.133 168.317 162.122 169.023 158.971 169.685C155.918 170.326 152.124 170.861 147.791 171.284C139.13 172.128 128.562 172.498 117.948 172.431C107.336 172.364 96.7643 171.862 88.1019 170.983C83.7678 170.543 79.9632 170.013 76.8959 169.41C73.7354 168.788 71.6724 168.145 70.6134 167.603L66.9639 174.722ZM52.6549 162.195C55.9545 166.565 60.6955 171.508 66.9639 174.722L70.6134 167.603C65.7996 165.135 61.9244 161.195 59.0393 157.374L52.6549 162.195ZM47.9027 137.73C46.5397 145.787 47.1686 154.929 52.6549 162.195L59.0393 157.374C55.3894 152.541 54.6249 145.955 55.7906 139.064L47.9027 137.73ZM56.0027 89.845L47.9027 137.73L55.7906 139.064L63.8907 91.1793L56.0027 89.845ZM62.987 72.4597C59.5137 77.5697 57.0822 83.4634 56.0027 89.845L63.8907 91.1793C64.7747 85.9534 66.7634 81.135 69.6033 76.9569L62.987 72.4597ZM47.8766 70.1979C52.5481 76.5285 60.0696 79.9584 67.0395 78.6384L65.5508 70.7781C62.1202 71.4279 57.4964 69.7609 54.3137 65.4478L47.8766 70.1979ZM49.7874 44.355C41.7258 50.3039 41.8844 62.0778 47.8766 70.1979L54.3137 65.4478C50.0353 59.6501 51.1496 53.2921 54.5375 50.7921L49.7874 44.355ZM75.0446 50.1498C69.0525 42.0296 57.8489 38.4062 49.7874 44.355L54.5375 50.7921C57.9254 48.2921 64.3292 49.1022 68.6075 54.8999L75.0446 50.1498Z" fill="black" mask="url(#path-6-outside-1_8_181)"/>
<path d="M52.8725 150.284L64.5306 152.741C70.7104 154.044 77.1174 153.786 83.1724 151.99L106.055 145.204C113.434 143.016 121.304 143.12 128.623 145.503L147.654 151.699C153.754 153.685 160.257 154.094 166.557 152.889L180.177 150.284" stroke="#787878" stroke-width="3" stroke-linecap="round"/>
<circle cx="100.107" cy="122.757" r="2.22104" fill="#787878"/>
<circle cx="78.5343" cy="104.702" r="4.77634" fill="black"/>
<circle cx="153.219" cy="104.702" r="4.77634" fill="black"/>
<ellipse cx="170.674" cy="63.1137" rx="10.6787" ry="6.39872" transform="rotate(-53.9615 170.674 63.1137)" fill="#A9A9A9"/>
<ellipse cx="10.6787" cy="6.39872" rx="10.6787" ry="6.39872" transform="matrix(-0.588329 -0.808622 -0.808622 0.588329 70.1461 67.9841)" fill="#A9A9A9"/>
<circle cx="133.423" cy="122.757" r="2.22104" fill="#787878"/>
<path d="M32.302 174.496L31.3363 175.12L28.0798 170.355L29.0455 169.731L32.302 174.496ZM33.0203 167.424L24.0638 173.212L23.2662 172.045L32.2227 166.257L33.0203 167.424ZM36.8471 173.023L27.8906 178.811L27.0971 177.65L36.0537 171.862L36.8471 173.023Z" fill="black"/>
<path d="M43.9175 191.365L41.8893 189.364L42.7194 188.568L44.7476 190.569C45.1404 190.957 45.5219 191.209 45.8921 191.328C46.2623 191.446 46.6159 191.452 46.9527 191.346C47.293 191.243 47.6077 191.053 47.8968 190.776C48.1611 190.522 48.3523 190.227 48.4702 189.891C48.5917 189.558 48.6012 189.205 48.4989 188.829C48.4001 188.451 48.1543 188.068 47.7615 187.68L45.968 185.911L39.1047 192.489L38.0984 191.496L45.7971 184.117L48.597 186.879C49.1705 187.445 49.5549 188.02 49.7503 188.603C49.9456 189.187 49.9678 189.751 49.8168 190.294C49.6694 190.834 49.3683 191.322 48.9136 191.758C48.4201 192.231 47.8963 192.534 47.3423 192.666C46.7882 192.798 46.2214 192.757 45.6418 192.541C45.0658 192.323 44.491 191.931 43.9175 191.365Z" fill="black"/>
<path d="M54.221 200.699L51.9622 198.962L52.6877 198.07L54.9464 199.807C55.3838 200.143 55.7934 200.347 56.1753 200.419C56.5572 200.491 56.9086 200.453 57.2296 200.306C57.5545 200.162 57.8432 199.934 58.0958 199.624C58.3268 199.34 58.4801 199.023 58.5557 198.675C58.6351 198.33 58.601 197.977 58.4532 197.617C58.3085 197.254 58.0175 196.904 57.5801 196.568L55.5826 195.032L49.5852 202.408L48.4646 201.547L55.192 193.272L58.3101 195.67C58.9488 196.161 59.401 196.684 59.6667 197.239C59.9325 197.794 60.0239 198.351 59.9412 198.909C59.8616 199.464 59.6231 199.985 59.2257 200.474C58.7945 201.004 58.3122 201.369 57.7788 201.569C57.2455 201.768 56.6781 201.797 56.0766 201.655C55.4782 201.509 54.8597 201.19 54.221 200.699Z" fill="black"/>
<path d="M69.2951 208.803L68.935 209.373C68.507 210.05 68.0375 210.605 67.5265 211.039C67.0154 211.473 66.4798 211.781 65.9196 211.963C65.3595 212.146 64.7904 212.201 64.2126 212.129C63.6389 212.059 63.0734 211.857 62.516 211.524C61.9754 211.2 61.5414 210.804 61.214 210.336C60.8909 209.869 60.6825 209.35 60.5889 208.776C60.4995 208.205 60.5343 207.597 60.6933 206.953C60.8524 206.309 61.1459 205.648 61.5738 204.972L61.934 204.402C62.3619 203.725 62.8322 203.173 63.3449 202.746C63.8643 202.317 64.4062 202.013 64.9706 201.833C65.5375 201.649 66.1079 201.591 66.6815 201.662C67.2594 201.734 67.8186 201.932 68.3593 202.255C68.9166 202.588 69.3569 202.988 69.6801 203.454C70.0074 203.923 70.2124 204.444 70.295 205.016C70.3844 205.587 70.3454 206.193 70.178 206.832C70.0174 207.469 69.7231 208.127 69.2951 208.803ZM67.7343 208.655L68.1023 208.073C68.4415 207.537 68.6851 207.028 68.8329 206.548C68.9849 206.07 69.0427 205.627 69.0064 205.218C68.9701 204.81 68.8426 204.441 68.6238 204.111C68.4092 203.784 68.1071 203.503 67.7173 203.27C67.3401 203.045 66.9529 202.913 66.5557 202.874C66.1626 202.838 65.7684 202.896 65.373 203.046C64.9818 203.199 64.5971 203.446 64.2188 203.789C63.8405 204.132 63.4817 204.571 63.1425 205.108L62.7745 205.689C62.4327 206.23 62.1886 206.744 62.0424 207.231C61.8988 207.714 61.8459 208.163 61.8838 208.578C61.9284 208.991 62.056 209.36 62.2664 209.685C62.481 210.013 62.7769 210.289 63.154 210.515C63.548 210.75 63.9436 210.887 64.3408 210.926C64.7381 210.964 65.1302 210.906 65.5172 210.75C65.911 210.593 66.2929 210.341 66.6628 209.994C67.0353 209.642 67.3925 209.196 67.7343 208.655Z" fill="black"/>
<path d="M84.532 210.22L77.8111 218.156L76.4501 217.677L84.005 209.033L84.8824 209.342L84.532 210.22ZM83.9321 220.311L83.9862 210.028L84.2951 209.135L85.1725 209.444L85.3001 220.793L83.9321 220.311ZM85.1368 216.551L84.733 217.635L79.0818 215.646L79.4855 214.561L85.1368 216.551Z" fill="black"/>
<path d="M93.4381 212.024L96.9174 212.622C97.7066 212.757 98.3513 212.992 98.8515 213.326C99.3564 213.66 99.7081 214.087 99.9065 214.607C100.111 215.122 100.151 215.721 100.027 216.403C99.9393 216.884 99.7608 217.306 99.4911 217.671C99.227 218.032 98.8868 218.32 98.4704 218.536C98.0597 218.748 97.5895 218.878 97.0598 218.926L96.6425 219.01L93.3725 218.448L93.5637 217.314L96.0324 217.738C96.5329 217.824 96.9648 217.809 97.3283 217.694C97.6927 217.573 97.9861 217.378 98.2087 217.109C98.4312 216.84 98.5752 216.526 98.6407 216.165C98.714 215.762 98.6988 215.395 98.595 215.065C98.4911 214.735 98.2832 214.459 97.9712 214.237C97.6649 214.011 97.2447 213.852 96.7105 213.76L94.6244 213.402L92.9248 222.756L91.5317 222.516L93.4381 212.024ZM97.6746 223.572L95.9834 218.376L97.4356 218.619L99.1773 223.741L99.1616 223.827L97.6746 223.572Z" fill="black"/>
<path d="M111.927 221.914L113.329 222.017C113.204 222.683 112.965 223.27 112.612 223.778C112.259 224.286 111.785 224.674 111.191 224.944C110.598 225.209 109.875 225.31 109.023 225.247C108.399 225.201 107.841 225.042 107.348 224.771C106.86 224.5 106.45 224.137 106.118 223.682C105.786 223.221 105.544 222.682 105.392 222.064C105.244 221.441 105.2 220.757 105.258 220.012L105.34 218.954C105.398 218.209 105.548 217.542 105.79 216.952C106.037 216.359 106.362 215.859 106.766 215.453C107.175 215.047 107.651 214.747 108.195 214.552C108.739 214.357 109.34 214.284 109.998 214.332C110.801 214.391 111.469 214.592 112 214.935C112.532 215.278 112.93 215.728 113.195 216.286C113.466 216.84 113.61 217.47 113.628 218.176L112.226 218.073C112.196 217.571 112.103 217.136 111.946 216.767C111.789 216.393 111.547 216.096 111.222 215.876C110.896 215.656 110.458 215.526 109.908 215.486C109.435 215.451 109.012 215.51 108.638 215.664C108.268 215.818 107.949 216.051 107.679 216.364C107.415 216.678 107.204 217.061 107.046 217.515C106.888 217.968 106.788 218.478 106.744 219.042L106.66 220.116C106.619 220.636 106.635 221.13 106.706 221.595C106.783 222.061 106.919 222.475 107.117 222.837C107.314 223.199 107.577 223.493 107.907 223.718C108.238 223.938 108.64 224.066 109.112 224.1C109.711 224.144 110.195 224.085 110.566 223.921C110.936 223.757 111.225 223.504 111.433 223.162C111.646 222.821 111.81 222.404 111.927 221.914Z" fill="black"/>
<path d="M126.56 218.793L126.618 219.942L120.853 220.216L120.795 219.067L126.56 218.793ZM120.785 214.478L121.32 225.128L119.908 225.195L119.373 214.545L120.785 214.478ZM127.559 214.155L128.095 224.806L126.69 224.873L126.154 214.222L127.559 214.155Z" fill="black"/>
<path d="M141.712 221.35L141.915 222.482L136.348 223.429L136.145 222.297L141.712 221.35ZM134.741 212.885L136.63 223.381L135.236 223.618L133.348 213.123L134.741 212.885ZM140.102 216.624L140.306 217.756L135.475 218.578L135.272 217.446L140.102 216.624ZM139.954 211.998L140.159 213.137L134.665 214.072L134.46 212.933L139.954 211.998Z" fill="black"/>
<path d="M144.44 210.622L147.805 209.553C148.568 209.311 149.252 209.222 149.855 209.286C150.463 209.349 150.981 209.564 151.408 209.93C151.838 210.29 152.164 210.799 152.384 211.456C152.54 211.919 152.587 212.373 152.525 212.818C152.466 213.256 152.305 213.666 152.042 214.047C151.782 214.422 151.429 214.751 150.984 215.036L150.656 215.302L147.494 216.307L147.114 215.221L149.501 214.462C149.985 214.309 150.359 214.097 150.624 213.829C150.888 213.556 151.053 213.25 151.119 212.911C151.186 212.572 151.161 212.229 151.044 211.882C150.914 211.493 150.722 211.177 150.471 210.935C150.219 210.692 149.902 210.544 149.519 210.492C149.138 210.433 148.69 210.486 148.174 210.65L146.156 211.291L149.184 220.303L147.837 220.731L144.44 210.622ZM153.777 218.844L149.767 215.047L151.167 214.594L155.187 218.303L155.215 218.387L153.777 218.844Z" fill="black"/>
<path d="M156.283 206.444L161.138 210.105L161.322 204.13L162.78 203.461L162.356 211.004L164.097 214.588L162.812 215.178L161.072 211.594L154.812 207.12L156.283 206.444Z" fill="black"/>
<path d="M180.598 200.018L181.731 199.186C182.085 199.761 182.3 200.352 182.375 200.957C182.449 201.562 182.352 202.157 182.084 202.742C181.812 203.324 181.332 203.867 180.643 204.373C180.139 204.743 179.609 204.987 179.052 205.106C178.499 205.221 177.943 205.218 177.384 205.095C176.822 204.969 176.275 204.726 175.742 204.366C175.211 204 174.716 203.521 174.257 202.931L173.606 202.093C173.147 201.503 172.811 200.911 172.597 200.317C172.384 199.717 172.294 199.135 172.326 198.572C172.363 198.006 172.522 197.475 172.803 196.977C173.084 196.48 173.49 196.036 174.022 195.646C174.671 195.169 175.313 194.885 175.947 194.795C176.581 194.705 177.187 194.78 177.765 195.022C178.343 195.258 178.877 195.631 179.368 196.143L178.234 196.976C177.874 196.623 177.509 196.361 177.141 196.189C176.77 196.014 176.387 195.95 175.991 195.998C175.596 196.046 175.176 196.233 174.732 196.56C174.35 196.84 174.069 197.159 173.888 197.516C173.712 197.869 173.627 198.249 173.634 198.656C173.645 199.06 173.743 199.481 173.93 199.92C174.116 200.358 174.383 200.801 174.73 201.249L175.391 202.099C175.711 202.512 176.055 202.867 176.424 203.166C176.796 203.462 177.179 203.681 177.572 203.821C177.966 203.962 178.364 204.009 178.766 203.962C179.165 203.911 179.556 203.745 179.938 203.465C180.422 203.109 180.749 202.751 180.919 202.389C181.09 202.028 181.138 201.653 181.065 201.265C180.996 200.873 180.84 200.458 180.598 200.018Z" fill="black"/>
<path d="M192.608 192.87L193.401 193.702L189.44 197.271L188.647 196.438L192.608 192.87ZM182.291 189.364L189.646 197.084L188.596 198.031L181.24 190.31L182.291 189.364Z" fill="black"/>
<path d="M192.375 178.834L193.285 177.761L198.913 182.275C199.537 182.776 199.942 183.329 200.127 183.934C200.311 184.539 200.317 185.151 200.144 185.769C199.971 186.381 199.662 186.949 199.216 187.474C198.749 188.026 198.223 188.442 197.638 188.724C197.053 188.999 196.442 189.1 195.806 189.028C195.173 188.952 194.544 188.663 193.919 188.162L188.291 183.648L189.196 182.581L194.824 187.095C195.258 187.444 195.683 187.653 196.097 187.722C196.512 187.792 196.906 187.742 197.28 187.573C197.657 187.4 198.004 187.127 198.319 186.755C198.638 186.379 198.848 185.996 198.948 185.607C199.05 185.214 199.027 184.826 198.878 184.444C198.729 184.061 198.437 183.696 198.003 183.348L192.375 178.834Z" fill="black"/>
<path d="M203.627 173.264L202.034 175.447L201.092 174.813L202.538 172.831C202.777 172.504 202.929 172.179 202.995 171.857C203.061 171.534 203.039 171.234 202.928 170.955C202.816 170.67 202.613 170.426 202.32 170.224C201.998 170.001 201.693 169.882 201.403 169.866C201.111 169.842 200.829 169.923 200.555 170.108C200.28 170.286 200.005 170.564 199.729 170.943L198.503 172.623L206.323 178.028L205.49 179.17L196.717 173.107L198.777 170.285C199.099 169.843 199.433 169.48 199.779 169.197C200.12 168.911 200.475 168.714 200.844 168.607C201.211 168.493 201.587 168.474 201.972 168.55C202.358 168.627 202.755 168.807 203.165 169.09C203.526 169.34 203.788 169.657 203.948 170.041C204.105 170.422 204.158 170.839 204.107 171.29C204.058 171.737 203.904 172.194 203.642 172.66L203.627 173.264ZM207.692 176.153L205.809 178.733L205.334 177.434L206.746 175.499C207.01 175.136 207.171 174.784 207.226 174.443C207.285 174.097 207.247 173.777 207.111 173.482C206.972 173.184 206.742 172.924 206.421 172.702C206.095 172.477 205.772 172.34 205.452 172.291C205.132 172.241 204.818 172.294 204.511 172.45C204.204 172.606 203.909 172.877 203.627 173.264L202.44 174.891L201.515 174.233L203.138 172.009L203.653 171.999C203.991 171.61 204.367 171.342 204.782 171.196C205.193 171.047 205.61 171.006 206.033 171.072C206.458 171.135 206.86 171.297 207.238 171.558C207.784 171.935 208.159 172.373 208.364 172.871C208.568 173.362 208.613 173.888 208.499 174.45C208.381 175.009 208.112 175.577 207.692 176.153Z" fill="black"/>
<path d="M41.228 179.58L32.9322 186.281L32.0141 185.206L40.3099 178.505L41.228 179.58Z" fill="black"/>
</svg>
