<svg width="228" height="230" viewBox="0 0 228 230" fill="none" xmlns="http://www.w3.org/2000/svg">
<circle cx="113.992" cy="113.536" r="113.036" fill="black" stroke="black"/>
<circle cx="113.992" cy="113.536" r="93.9622" fill="white"/>
<circle cx="113.992" cy="113.536" r="73.886" fill="black"/>
<circle cx="113.992" cy="113.536" r="53.4632" fill="white"/>
<circle cx="113.992" cy="113.536" r="34.427" fill="#DF3D3D"/>
<mask id="path-6-outside-1_8_182" maskUnits="userSpaceOnUse" x="46.6889" y="23.4009" width="135" height="174" fill="black">
<rect fill="white" x="46.6889" y="23.4009" width="135" height="174"/>
<path fill-rule="evenodd" clip-rule="evenodd" d="M123.499 53.3052C123.499 53.3052 120.591 47.432 118.411 39.9163C117.546 36.9351 117.013 34.4956 116.608 32.6418L116.608 32.6417C115.993 29.8221 115.673 28.3574 114.93 28.4019C114.194 28.446 113.75 29.976 112.95 32.736L112.95 32.7361L112.949 32.7362C112.41 34.5968 111.708 37.0162 110.645 39.9163C108.044 47.0163 104.586 53.1291 104.488 53.3014L102.785 53.5149C95.9655 54.3692 89.7023 56.9168 84.4164 60.7185C84.26 55.7249 82.0364 49.6677 77.9225 44.0928C70.5735 34.1339 59.9751 29.4851 54.2504 33.7096C48.5258 37.934 49.8426 49.4319 57.1916 59.3909C62.2458 66.24 68.8368 70.5775 74.3224 71.2444C70.7403 76.6928 68.456 83.0675 67.8921 89.9275L66.6956 104.483C66.1756 110.808 67.1715 117.157 69.5164 123.054C73.0259 131.88 78.4241 145.812 82.6144 158.22C84.3037 163.222 85.5818 167.877 86.7032 171.962C88.9342 180.089 90.5449 185.956 93.5402 187.8C104.079 194.286 120.457 195.363 131.138 187.8C133.623 186.039 134.804 181.106 136.368 174.573C137.516 169.777 138.871 164.119 141.099 158.22C145.515 146.532 151.544 133.901 155.932 125.162C159.573 117.911 161.206 109.785 160.347 101.717L159.001 89.0696C158.304 82.5235 156.043 76.4525 152.593 71.2397C158.226 70.6866 165.169 66.1341 170.507 58.9013C178.055 48.6719 179.534 36.9548 173.809 32.7304C168.084 28.5059 157.324 33.3739 149.776 43.6032C145.405 49.5259 143.069 55.9473 142.989 61.1244C137.611 57.1501 131.194 54.4894 124.198 53.6129L123.029 53.4665L123.499 53.3052Z"/>
</mask>
<path fill-rule="evenodd" clip-rule="evenodd" d="M123.499 53.3052C123.499 53.3052 120.591 47.432 118.411 39.9163C117.546 36.9351 117.013 34.4956 116.608 32.6418L116.608 32.6417C115.993 29.8221 115.673 28.3574 114.93 28.4019C114.194 28.446 113.75 29.976 112.95 32.736L112.95 32.7361L112.949 32.7362C112.41 34.5968 111.708 37.0162 110.645 39.9163C108.044 47.0163 104.586 53.1291 104.488 53.3014L102.785 53.5149C95.9655 54.3692 89.7023 56.9168 84.4164 60.7185C84.26 55.7249 82.0364 49.6677 77.9225 44.0928C70.5735 34.1339 59.9751 29.4851 54.2504 33.7096C48.5258 37.934 49.8426 49.4319 57.1916 59.3909C62.2458 66.24 68.8368 70.5775 74.3224 71.2444C70.7403 76.6928 68.456 83.0675 67.8921 89.9275L66.6956 104.483C66.1756 110.808 67.1715 117.157 69.5164 123.054C73.0259 131.88 78.4241 145.812 82.6144 158.22C84.3037 163.222 85.5818 167.877 86.7032 171.962C88.9342 180.089 90.5449 185.956 93.5402 187.8C104.079 194.286 120.457 195.363 131.138 187.8C133.623 186.039 134.804 181.106 136.368 174.573C137.516 169.777 138.871 164.119 141.099 158.22C145.515 146.532 151.544 133.901 155.932 125.162C159.573 117.911 161.206 109.785 160.347 101.717L159.001 89.0696C158.304 82.5235 156.043 76.4525 152.593 71.2397C158.226 70.6866 165.169 66.1341 170.507 58.9013C178.055 48.6719 179.534 36.9548 173.809 32.7304C168.084 28.5059 157.324 33.3739 149.776 43.6032C145.405 49.5259 143.069 55.9473 142.989 61.1244C137.611 57.1501 131.194 54.4894 124.198 53.6129L123.029 53.4665L123.499 53.3052Z" fill="white"/>
<path d="M118.411 39.9163L114.569 41.0309V41.0309L118.411 39.9163ZM123.499 53.3052L124.799 57.0879L129.102 55.6087L127.083 51.5307L123.499 53.3052ZM116.608 32.6418L120.516 31.7884L120.513 31.7754L120.51 31.7624L116.608 32.6418ZM116.608 32.6417L112.7 33.4951L112.703 33.5081L112.706 33.5211L116.608 32.6417ZM114.93 28.4019L115.169 32.3948H115.169L114.93 28.4019ZM112.95 32.736L109.108 31.6216L109.086 31.6986L109.066 31.7765L112.95 32.736ZM112.95 32.7361L116.771 33.9177L116.805 33.8076L116.833 33.6957L112.95 32.7361ZM112.949 32.7362L109.128 31.5547L109.118 31.5881L109.108 31.6218L112.949 32.7362ZM110.645 39.9163L114.401 41.2926V41.2926L110.645 39.9163ZM104.488 53.3014L104.986 57.2704L106.977 57.0209L107.968 55.275L104.488 53.3014ZM102.785 53.5149L102.288 49.5459V49.5459L102.785 53.5149ZM84.4164 60.7185L80.4183 60.8436L80.6533 68.3519L86.7519 63.9658L84.4164 60.7185ZM77.9225 44.0928L74.704 46.4679L77.9225 44.0928ZM54.2504 33.7096L51.8754 30.491L54.2504 33.7096ZM57.1916 59.3909L53.973 61.7659L57.1916 59.3909ZM74.3224 71.2444L77.6648 73.4418L81.2083 68.0521L74.8052 67.2736L74.3224 71.2444ZM67.8921 89.9275L71.8786 90.2552L67.8921 89.9275ZM66.6956 104.483L62.709 104.155L66.6956 104.483ZM69.5164 123.054L73.2333 121.576L73.2333 121.576L69.5164 123.054ZM82.6144 158.22L78.8247 159.5L82.6144 158.22ZM86.7032 171.962L82.8459 173.021L86.7032 171.962ZM93.5402 187.8L91.4435 191.206L91.4435 191.206L93.5402 187.8ZM131.138 187.8L128.826 184.535L131.138 187.8ZM136.368 174.573L140.258 175.504L136.368 174.573ZM141.099 158.22L144.841 159.634H144.841L141.099 158.22ZM155.932 125.162L152.357 123.367L155.932 125.162ZM160.347 101.717L156.369 102.14L160.347 101.717ZM159.001 89.0696L155.023 89.4929L159.001 89.0696ZM152.593 71.2397L152.202 67.2589L145.591 67.908L149.257 73.4473L152.593 71.2397ZM170.507 58.9013L173.725 61.2763L170.507 58.9013ZM173.809 32.7304L171.434 35.9489V35.9489L173.809 32.7304ZM149.776 43.6032L152.994 45.9783L149.776 43.6032ZM142.989 61.1244L140.611 64.3412L146.866 68.9646L146.988 61.187L142.989 61.1244ZM124.198 53.6129L123.701 57.5819L124.198 53.6129ZM123.029 53.4665L121.729 49.6838L122.532 57.4355L123.029 53.4665ZM114.569 41.0309C115.712 44.9687 117.039 48.4599 118.078 50.9626C118.599 52.2171 119.05 53.2315 119.375 53.9387C119.537 54.2924 119.668 54.5699 119.76 54.7627C119.806 54.8592 119.843 54.9345 119.869 54.9876C119.882 55.0142 119.892 55.0353 119.899 55.0506C119.903 55.0583 119.906 55.0646 119.909 55.0695C119.91 55.0719 119.911 55.0739 119.912 55.0757C119.912 55.0765 119.912 55.0773 119.913 55.0779C119.913 55.0783 119.913 55.0787 119.913 55.0789C119.913 55.0793 119.914 55.0797 123.499 53.3052C127.083 51.5307 127.084 51.531 127.084 51.5314C127.084 51.5314 127.084 51.5317 127.084 51.5319C127.084 51.5322 127.084 51.5324 127.084 51.5326C127.084 51.5328 127.084 51.5328 127.084 51.5323C127.084 51.5315 127.083 51.5292 127.081 51.5256C127.077 51.5183 127.071 51.5054 127.062 51.4871C127.044 51.4506 127.016 51.3924 126.978 51.3136C126.903 51.1558 126.79 50.9157 126.646 50.6015C126.357 49.9726 125.945 49.0489 125.467 47.8957C124.507 45.5829 123.29 42.3796 122.252 38.8018L114.569 41.0309ZM112.7 33.4952C113.107 35.3576 113.664 37.9103 114.569 41.0309L122.252 38.8018C121.428 35.9599 120.919 33.6336 120.516 31.7884L112.7 33.4952ZM112.706 33.5211L112.706 33.5212L120.51 31.7624L120.51 31.7623L112.706 33.5211ZM115.169 32.3948C114.559 32.4313 113.935 32.3054 113.374 32.0198C112.848 31.7517 112.513 31.4131 112.33 31.1907C112.019 30.8124 111.961 30.5415 112.042 30.7703C112.099 30.9335 112.182 31.2235 112.302 31.7185C112.418 32.2024 112.544 32.7776 112.7 33.4951L120.516 31.7883C120.234 30.497 119.943 29.1275 119.592 28.1253C119.422 27.641 119.107 26.836 118.508 26.1075C117.792 25.2374 116.491 24.3012 114.69 24.4091L115.169 32.3948ZM116.791 33.8504C116.995 33.1494 117.161 32.577 117.312 32.0896C117.467 31.5942 117.578 31.2779 117.661 31.0785C117.762 30.8337 117.733 30.9796 117.519 31.2411C117.276 31.5395 116.504 32.3147 115.169 32.3948L114.69 24.4091C112.987 24.5112 111.885 25.4941 111.326 26.1781C110.797 26.8252 110.469 27.5343 110.267 28.0225C109.86 29.0089 109.479 30.3409 109.108 31.6216L116.791 33.8504ZM116.833 33.6957L116.833 33.6956L109.066 31.7765L109.066 31.7766L116.833 33.6957ZM116.771 33.9177L116.771 33.9177L109.128 31.5546L109.128 31.5547L116.771 33.9177ZM114.401 41.2926C115.515 38.2524 116.249 35.718 116.791 33.8506L109.108 31.6218C108.57 33.4755 107.901 35.7801 106.889 38.5401L114.401 41.2926ZM107.968 55.275C108.1 55.0424 111.685 48.7037 114.401 41.2926L106.889 38.5401C104.402 45.3289 101.073 51.2159 101.009 51.3279L107.968 55.275ZM103.282 57.4838L104.986 57.2704L103.991 49.3325L102.288 49.5459L103.282 57.4838ZM86.7519 63.9658C91.5079 60.5453 97.1418 58.2531 103.282 57.4838L102.288 49.5459C94.7892 50.4854 87.8967 53.2884 82.0808 57.4711L86.7519 63.9658ZM74.704 46.4679C78.4524 51.5475 80.2929 56.8383 80.4183 60.8436L88.4144 60.5933C88.2272 54.6115 85.6205 47.788 81.1411 41.7178L74.704 46.4679ZM56.6255 36.9281C57.8441 36.0289 60.2208 35.6447 63.8706 37.2456C67.4055 38.7961 71.3685 41.9479 74.704 46.4679L81.1411 41.7178C77.1275 36.2788 72.1168 32.1268 67.0841 29.9193C62.1663 27.7622 56.3815 27.1658 51.8754 30.491L56.6255 36.9281ZM60.4101 57.0158C57.0747 52.4958 55.2316 47.7796 54.7924 43.9447C54.3389 39.9851 55.407 37.8273 56.6255 36.9281L51.8754 30.491C47.3692 33.8163 46.2333 39.5197 46.8443 44.8549C47.4696 50.3148 49.9594 56.327 53.973 61.7659L60.4101 57.0158ZM74.8052 67.2736C70.7869 66.7851 65.0751 63.3375 60.4101 57.0158L53.973 61.7659C59.4164 69.1425 66.8867 74.3699 73.8397 75.2152L74.8052 67.2736ZM71.8786 90.2552C72.3864 84.0784 74.4417 78.3441 77.6648 73.4418L70.9801 69.047C67.0389 75.0415 64.5256 82.0567 63.9055 89.5998L71.8786 90.2552ZM70.6821 104.811L71.8786 90.2552L63.9055 89.5998L62.709 104.155L70.6821 104.811ZM73.2333 121.576C71.1086 116.233 70.2144 110.5 70.6821 104.811L62.709 104.155C62.1369 111.115 63.2343 118.081 65.7994 124.532L73.2333 121.576ZM86.4042 156.94C82.1795 144.431 76.7502 130.42 73.2333 121.576L65.7994 124.532C69.3017 133.339 74.6688 147.194 78.8247 159.5L86.4042 156.94ZM90.5605 170.903C89.4411 166.826 88.1353 162.066 86.4042 156.94L78.8247 159.5C80.4722 164.378 81.7225 168.929 82.8459 173.021L90.5605 170.903ZM95.6368 184.393C95.352 184.218 94.5902 183.426 93.5627 180.786C92.5985 178.309 91.6959 175.039 90.5605 170.903L82.8459 173.021C83.9415 177.012 84.9597 180.739 86.1075 183.688C87.1919 186.474 88.7332 189.538 91.4435 191.206L95.6368 184.393ZM128.826 184.535C119.715 190.987 105.106 190.221 95.6368 184.393L91.4435 191.206C103.053 198.352 121.199 199.739 133.449 191.064L128.826 184.535ZM132.478 173.642C131.679 176.979 131.043 179.615 130.327 181.645C129.563 183.807 128.983 184.424 128.826 184.535L133.449 191.064C135.778 189.415 137.031 186.686 137.87 184.308C138.757 181.797 139.493 178.7 140.258 175.504L132.478 173.642ZM137.357 156.806C135.028 162.973 133.622 168.863 132.478 173.642L140.258 175.504C141.41 170.692 142.714 165.265 144.841 159.634L137.357 156.806ZM152.357 123.367C147.948 132.148 141.846 144.925 137.357 156.806L144.841 159.634C149.183 148.14 155.139 135.654 159.506 126.957L152.357 123.367ZM156.369 102.14C157.141 109.394 155.678 116.753 152.357 123.367L159.506 126.957C163.467 119.069 165.27 110.177 164.324 101.293L156.369 102.14ZM155.023 89.4929L156.369 102.14L164.324 101.293L162.978 88.6463L155.023 89.4929ZM149.257 73.4473C152.361 78.1375 154.396 83.5987 155.023 89.4929L162.978 88.6463C162.212 81.4484 159.725 74.7676 155.929 69.0321L149.257 73.4473ZM152.984 75.2206C160.169 74.5151 168.019 69.0095 173.725 61.2763L167.288 56.5262C162.32 63.2588 156.284 66.8581 152.202 67.2589L152.984 75.2206ZM173.725 61.2763C177.828 55.7162 180.406 49.598 181.104 44.0647C181.783 38.6787 180.734 32.8694 176.184 29.5118L171.434 35.9489C172.609 36.8158 173.682 38.9772 173.167 43.0632C172.67 47.002 170.734 51.8569 167.288 56.5262L173.725 61.2763ZM176.184 29.5118C171.634 26.1543 165.774 26.8646 160.828 29.1022C155.746 31.401 150.66 35.6681 146.557 41.2282L152.994 45.9783C156.44 41.3091 160.508 38.0274 164.125 36.391C167.877 34.6935 170.259 35.082 171.434 35.9489L176.184 29.5118ZM146.557 41.2282C141.827 47.6383 139.086 54.8495 138.989 61.0619L146.988 61.187C147.053 57.0452 148.983 51.4135 152.994 45.9783L146.557 41.2282ZM123.701 57.5819C129.999 58.371 135.772 60.7649 140.611 64.3412L145.366 57.9077C139.45 53.5353 132.388 50.6078 124.695 49.644L123.701 57.5819ZM122.532 57.4355L123.701 57.5819L124.695 49.644L123.526 49.4975L122.532 57.4355ZM122.198 49.5224L121.729 49.6838L124.33 57.2493L124.799 57.0879L122.198 49.5224Z" fill="black" mask="url(#path-6-outside-1_8_182)"/>
<path d="M118.411 39.9163C120.591 47.432 123.499 53.3052 123.499 53.3052L114.93 56.2507L104.486 53.3052C104.486 53.3052 108.006 47.1187 110.645 39.9163C113.284 32.714 113.698 28.4757 114.93 28.4019C116.161 28.3281 116.23 32.4006 118.411 39.9163Z" fill="#292929"/>
<mask id="mask0_8_182" style="mask-type:alpha" maskUnits="userSpaceOnUse" x="50" y="31" width="128" height="163">
<path fill-rule="evenodd" clip-rule="evenodd" d="M142.989 61.1244C143.069 55.9473 145.405 49.5259 149.776 43.6032C157.324 33.3739 168.084 28.5059 173.809 32.7303C179.534 36.9548 178.055 48.6719 170.507 58.9013C165.169 66.1341 158.226 70.6866 152.593 71.2397C156.043 76.4525 158.304 82.5235 159.001 89.0696L160.347 101.717C161.206 109.785 159.573 117.911 155.932 125.162C151.544 133.901 145.515 146.532 141.099 158.22C138.871 164.119 137.516 169.777 136.368 174.573C134.804 181.106 133.623 186.039 131.138 187.8C120.457 195.363 104.079 194.286 93.5402 187.8C90.5449 185.956 88.9342 180.089 86.7032 171.962L86.7031 171.962C85.5818 167.877 84.3037 163.222 82.6144 158.22C78.4241 145.812 73.0259 131.88 69.5163 123.054C67.1715 117.157 66.1756 110.808 66.6956 104.483L67.8921 89.9275C68.456 83.0675 70.7403 76.6928 74.3224 71.2444C68.8368 70.5775 62.2458 66.24 57.1916 59.3909C49.8426 49.4319 48.5258 37.934 54.2504 33.7096C59.9751 29.4851 70.5735 34.1339 77.9225 44.0928C82.0364 49.6677 84.26 55.7249 84.4164 60.7185C89.7023 56.9168 95.9655 54.3692 102.785 53.5148L108.128 52.8455C111.43 52.4318 114.771 52.4318 118.073 52.8455L124.198 53.6129C131.194 54.4894 137.611 57.1501 142.989 61.1244Z" fill="#D9D9D9"/>
</mask>
<g mask="url(#mask0_8_182)">
<rect x="43.6441" y="26.3475" width="139.491" height="174.637" fill="white"/>
<path d="M109.738 65.5632C107.557 58.0475 104.65 52.1743 104.65 52.1743L113.219 49.2288L123.662 52.1743C123.662 52.1743 120.143 58.3608 117.504 65.5632C114.864 72.7655 114.451 77.0037 113.219 77.0776C111.988 77.1514 111.919 73.0789 109.738 65.5632Z" fill="#292929"/>
<path d="M99.2974 148.309L88.9792 160.518C85.299 164.873 84.2144 170.858 86.1321 176.227L89.2257 184.889C91.7572 191.977 98.8864 196.343 106.35 195.375L121.61 193.397C127.645 192.615 132.714 188.476 134.688 182.719L137.059 175.803C138.823 170.661 137.854 164.974 134.487 160.706L125.039 148.727C122.005 144.881 117.376 142.636 112.477 142.636H111.518C106.808 142.636 102.337 144.711 99.2974 148.309Z" fill="#292929"/>
<path d="M138.039 142.355C142.581 149.404 142.581 156.609 142.581 156.609L144.893 152.578L148.028 144.48C148.028 144.48 146.184 140.319 141.015 136.09C135.846 131.861 128.189 130.146 127.545 130.764C126.9 131.382 133.497 135.307 138.039 142.355Z" fill="#292929"/>
<path d="M93.9352 61.0577C93.3106 52.6956 96.7517 46.3652 96.7517 46.3652L92.7958 48.8021L86.1742 54.4198C86.1742 54.4198 85.8067 58.9568 88.3283 65.141C90.8498 71.3252 96.7582 76.4881 97.6198 76.2532C98.4815 76.0184 94.5598 69.4198 93.9352 61.0577Z" fill="#292929"/>
<path d="M134.049 61.0576C134.674 52.6955 131.232 46.3652 131.232 46.3652L135.188 48.8021L141.81 54.4197C141.81 54.4197 142.177 58.9567 139.656 65.1409C137.134 71.3252 131.226 76.4881 130.364 76.2532C129.503 76.0183 133.424 69.4197 134.049 61.0576Z" fill="#292929"/>
<path d="M148.151 127.634C152.693 134.682 153.236 141.505 153.236 141.505L155.548 137.474L159.266 128.578C159.266 128.578 155.421 123.994 150.252 119.765C145.083 115.536 132.982 112.919 132.337 113.537C131.692 114.155 143.608 120.585 148.151 127.634Z" fill="#292929"/>
<path d="M85.573 142.355C81.0306 149.404 81.0306 156.609 81.0306 156.609L78.7188 152.578L75.5841 144.48C75.5841 144.48 77.428 140.319 82.5969 136.09C87.7658 131.861 95.4226 130.146 96.0674 130.764C96.7123 131.382 90.1153 135.307 85.573 142.355Z" fill="#292929"/>
<path d="M75.4613 127.634C70.9189 134.682 70.3758 141.505 70.3758 141.505L68.064 137.474L64.3464 128.578C64.3464 128.578 68.1909 123.994 73.3598 119.765C78.5287 115.536 90.63 112.919 91.2748 113.537C91.9197 114.155 80.0037 120.585 75.4613 127.634Z" fill="#292929"/>
<circle cx="96.6018" cy="169.22" r="2.22104" fill="black"/>
<circle cx="127.119" cy="169.22" r="2.22104" fill="black"/>
</g>
<path d="M84.4843 99.0007C84.4843 101.639 82.3459 103.777 79.708 103.777C77.0701 103.777 74.9316 101.639 74.9316 99.0007C74.9316 96.3628 77.0701 94.2244 79.708 94.2244C82.3459 94.2244 84.4843 96.3628 84.4843 99.0007Z" fill="black"/>
<circle cx="146.473" cy="99.0007" r="4.77634" fill="black"/>
<ellipse cx="161.398" cy="55.3462" rx="16.5744" ry="6.39872" transform="rotate(-53.9615 161.398 55.3462)" fill="#A9A9A9"/>
<ellipse cx="15.4558" cy="6.39872" rx="15.4558" ry="6.39872" transform="matrix(-0.588329 -0.808622 -0.808622 0.588329 80.2511 64.9841)" fill="#A9A9A9"/>
<path d="M24.981 175.178L24.0152 175.802L19.9404 169.84L20.9062 169.216L24.981 175.178ZM31.9783 170.377L20.1305 170.118L19.6388 169.398L20.5246 168.826L32.3436 169.095L32.8395 169.821L31.9783 170.377ZM32.5006 169.325L31.5287 169.953L27.6771 164.317L28.649 163.689L32.5006 169.325Z" fill="white"/>
<path d="M41.8791 188.774L39.9551 186.876L40.7643 186.08L42.5109 187.803C42.7995 188.088 43.1008 188.289 43.415 188.407C43.7292 188.525 44.0371 188.554 44.3386 188.495C44.647 188.436 44.93 188.283 45.1873 188.037C45.4693 187.766 45.6445 187.494 45.713 187.218C45.7885 186.943 45.7573 186.659 45.6194 186.365C45.4885 186.071 45.2562 185.76 44.9225 185.431L43.4418 183.97L36.5785 190.548L35.5722 189.555L43.2709 182.176L45.758 184.63C46.1473 185.014 46.4543 185.396 46.6791 185.775C46.9075 186.151 47.043 186.525 47.0859 186.896C47.1357 187.268 47.0876 187.632 46.9415 187.988C46.7954 188.344 46.5426 188.695 46.183 189.04C45.8657 189.344 45.4985 189.54 45.0813 189.629C44.6676 189.715 44.2371 189.694 43.79 189.569C43.3463 189.446 42.9121 189.22 42.4874 188.89L41.8791 188.774ZM38.2313 192.179L35.958 189.936L37.3565 189.701L39.0615 191.383C39.3812 191.699 39.7088 191.912 40.044 192.023C40.3828 192.138 40.7135 192.156 41.0361 192.076C41.3623 191.994 41.6663 191.817 41.9483 191.547C42.2339 191.273 42.4302 190.987 42.5374 190.688C42.6446 190.389 42.6468 190.08 42.5441 189.759C42.4414 189.438 42.2197 189.11 41.8791 188.774L40.4452 187.359L41.2752 186.584L43.2357 188.518L43.1534 189.013C43.4866 189.403 43.6902 189.81 43.7642 190.232C43.8417 190.652 43.809 191.058 43.6661 191.452C43.5267 191.849 43.2913 192.207 42.96 192.524C42.4806 192.984 41.9709 193.27 41.431 193.381C40.8981 193.493 40.3576 193.447 39.8095 193.242C39.2648 193.034 38.7388 192.679 38.2313 192.179Z" fill="white"/>
<path d="M52.3179 190.068L55.1166 192.22C55.7514 192.708 56.2106 193.215 56.494 193.741C56.7812 194.27 56.8881 194.807 56.8147 195.354C56.7481 195.9 56.4962 196.442 56.0587 196.98C55.7507 197.359 55.3895 197.645 54.9751 197.837C54.5677 198.029 54.1276 198.121 53.6547 198.115C53.1888 198.108 52.7095 198.001 52.2168 197.794L51.8062 197.673L49.1759 195.65L49.8897 194.749L51.8755 196.276C52.2781 196.586 52.6684 196.775 53.0464 196.844C53.4274 196.909 53.7812 196.876 54.1077 196.745C54.4341 196.615 54.7129 196.407 54.9439 196.123C55.2027 195.805 55.3652 195.477 55.4315 195.14C55.4978 194.804 55.4459 194.465 55.2758 194.125C55.1127 193.784 54.8162 193.448 54.3866 193.118L52.7085 191.828L46.7111 199.204L45.5904 198.343L52.3179 190.068ZM50.5318 202.142L51.5258 196.811L52.6975 197.702L51.7833 202.993L51.7279 203.061L50.5318 202.142Z" fill="white"/>
<path d="M65.1764 200.193L56.9521 206.596L55.7137 205.855L64.9019 198.928L65.7002 199.405L65.1764 200.193ZM62.5217 209.926L64.6798 199.896L65.1659 199.086L65.9642 199.563L63.7664 210.67L62.5217 209.926ZM64.4744 206.495L63.8559 207.473L58.7138 204.399L59.3323 203.421L64.4744 206.495Z" fill="white"/>
<path d="M81.9072 207.22L75.1863 215.156L73.8253 214.677L81.3802 206.033L82.2576 206.342L81.9072 207.22ZM81.3074 217.311L81.3615 207.028L81.6704 206.135L82.5478 206.444L82.6753 217.793L81.3074 217.311ZM82.512 213.551L82.1083 214.635L76.457 212.646L76.8607 211.561L82.512 213.551Z" fill="white"/>
<path d="M90.8134 209.024L94.2927 209.622C95.0819 209.757 95.7266 209.992 96.2267 210.326C96.7317 210.66 97.0833 211.087 97.2817 211.607C97.4858 212.122 97.5258 212.721 97.4019 213.403C97.3146 213.884 97.1361 214.306 96.8663 214.671C96.6022 215.032 96.262 215.32 95.8456 215.536C95.435 215.748 94.9648 215.878 94.435 215.926L94.0177 216.01L90.7478 215.448L90.9389 214.314L93.4076 214.738C93.9081 214.824 94.3401 214.809 94.7036 214.694C95.0679 214.573 95.3613 214.378 95.5839 214.109C95.8064 213.84 95.9505 213.526 96.0159 213.165C96.0893 212.762 96.074 212.395 95.9702 212.065C95.8664 211.735 95.6585 211.459 95.3465 211.237C95.0402 211.011 94.6199 210.852 94.0858 210.76L91.9996 210.402L90.3001 219.756L88.9069 219.516L90.8134 209.024ZM95.0498 220.572L93.3587 215.376L94.8109 215.619L96.5525 220.741L96.5368 220.827L95.0498 220.572Z" fill="white"/>
<path d="M109.302 218.914L110.705 219.017C110.579 219.683 110.34 220.27 109.987 220.778C109.634 221.286 109.161 221.674 108.567 221.944C107.973 222.209 107.25 222.31 106.398 222.247C105.775 222.201 105.216 222.042 104.723 221.771C104.235 221.5 103.825 221.137 103.493 220.682C103.162 220.221 102.92 219.682 102.767 219.064C102.619 218.441 102.575 217.757 102.633 217.012L102.715 215.954C102.773 215.209 102.923 214.542 103.165 213.952C103.412 213.359 103.737 212.859 104.141 212.453C104.55 212.047 105.026 211.747 105.571 211.552C106.115 211.357 106.715 211.284 107.373 211.332C108.176 211.391 108.844 211.592 109.375 211.935C109.907 212.278 110.305 212.728 110.571 213.286C110.841 213.84 110.985 214.47 111.004 215.176L109.601 215.073C109.572 214.571 109.478 214.136 109.321 213.767C109.164 213.393 108.923 213.096 108.597 212.876C108.271 212.656 107.833 212.526 107.283 212.486C106.811 212.451 106.387 212.51 106.013 212.664C105.643 212.818 105.324 213.051 105.055 213.364C104.79 213.678 104.579 214.061 104.421 214.515C104.264 214.968 104.163 215.478 104.119 216.042L104.035 217.116C103.995 217.636 104.01 218.13 104.082 218.595C104.158 219.061 104.295 219.475 104.492 219.837C104.689 220.199 104.953 220.493 105.283 220.718C105.613 220.938 106.015 221.066 106.487 221.1C107.086 221.144 107.571 221.085 107.941 220.921C108.311 220.757 108.6 220.504 108.808 220.162C109.021 219.821 109.186 219.404 109.302 218.914Z" fill="white"/>
<path d="M123.936 215.793L123.993 216.942L118.228 217.216L118.171 216.067L123.936 215.793ZM118.16 211.478L118.696 222.128L117.284 222.195L116.748 211.545L118.16 211.478ZM124.934 211.155L125.47 221.806L124.065 221.873L123.53 211.222L124.934 211.155Z" fill="white"/>
<path d="M139.087 218.35L139.291 219.482L133.724 220.429L133.52 219.297L139.087 218.35ZM132.117 209.885L134.005 220.381L132.612 220.618L130.723 210.123L132.117 209.885ZM137.477 213.624L137.681 214.756L132.851 215.578L132.647 214.446L137.477 213.624ZM137.33 208.998L137.535 210.137L132.04 211.072L131.835 209.933L137.33 208.998Z" fill="white"/>
<path d="M141.816 207.622L145.18 206.553C145.943 206.311 146.627 206.222 147.23 206.286C147.839 206.349 148.356 206.564 148.783 206.93C149.213 207.29 149.539 207.799 149.76 208.456C149.915 208.919 149.962 209.373 149.9 209.818C149.842 210.256 149.681 210.666 149.417 211.047C149.157 211.422 148.804 211.751 148.359 212.036L148.031 212.302L144.869 213.307L144.489 212.221L146.876 211.462C147.36 211.309 147.735 211.097 148 210.829C148.263 210.556 148.428 210.25 148.495 209.911C148.561 209.572 148.536 209.229 148.419 208.882C148.289 208.493 148.098 208.177 147.846 207.935C147.595 207.692 147.277 207.544 146.894 207.492C146.514 207.433 146.065 207.486 145.549 207.65L143.531 208.291L146.56 217.303L145.212 217.731L141.816 207.622ZM151.153 215.844L147.142 212.047L148.543 211.594L152.563 215.303L152.591 215.387L151.153 215.844Z" fill="white"/>
<path d="M153.659 203.444L158.513 207.105L158.697 201.13L160.155 200.461L159.731 208.004L161.472 211.588L160.187 212.178L158.447 208.594L152.188 204.12L153.659 203.444Z" fill="white"/>
<path d="M177.973 197.018L179.106 196.186C179.461 196.761 179.675 197.352 179.75 197.957C179.825 198.562 179.727 199.157 179.459 199.742C179.187 200.324 178.707 200.867 178.018 201.373C177.514 201.743 176.984 201.987 176.427 202.106C175.874 202.221 175.318 202.218 174.759 202.095C174.198 201.969 173.65 201.726 173.118 201.366C172.586 201 172.091 200.521 171.633 199.931L170.981 199.093C170.523 198.503 170.187 197.911 169.973 197.317C169.759 196.717 169.669 196.135 169.702 195.572C169.738 195.006 169.897 194.475 170.178 193.977C170.459 193.48 170.866 193.036 171.397 192.646C172.046 192.169 172.688 191.885 173.322 191.795C173.957 191.705 174.563 191.78 175.14 192.022C175.718 192.258 176.253 192.631 176.743 193.143L175.61 193.976C175.249 193.623 174.885 193.361 174.516 193.189C174.145 193.014 173.762 192.95 173.367 192.998C172.971 193.046 172.551 193.233 172.107 193.56C171.725 193.84 171.444 194.159 171.264 194.516C171.087 194.869 171.002 195.249 171.009 195.656C171.02 196.06 171.119 196.481 171.305 196.92C171.491 197.358 171.758 197.801 172.105 198.249L172.766 199.099C173.086 199.512 173.431 199.867 173.799 200.166C174.171 200.462 174.554 200.681 174.947 200.821C175.341 200.962 175.739 201.009 176.141 200.962C176.541 200.911 176.931 200.745 177.313 200.465C177.797 200.109 178.124 199.751 178.294 199.389C178.465 199.028 178.514 198.653 178.441 198.265C178.371 197.873 178.216 197.458 177.973 197.018Z" fill="white"/>
<path d="M189.984 189.87L190.777 190.702L186.815 194.271L186.022 193.438L189.984 189.87ZM179.666 186.364L187.022 194.084L185.971 195.031L178.616 187.31L179.666 186.364Z" fill="white"/>
<path d="M189.751 175.834L190.66 174.761L196.288 179.275C196.913 179.776 197.317 180.329 197.502 180.934C197.686 181.539 197.692 182.151 197.52 182.769C197.346 183.381 197.037 183.949 196.592 184.474C196.124 185.026 195.598 185.442 195.013 185.724C194.428 185.999 193.817 186.1 193.181 186.028C192.548 185.952 191.919 185.663 191.294 185.162L185.667 180.648L186.572 179.581L192.199 184.095C192.633 184.444 193.058 184.653 193.472 184.722C193.887 184.792 194.281 184.742 194.655 184.573C195.032 184.4 195.379 184.127 195.695 183.755C196.014 183.379 196.223 182.996 196.323 182.607C196.426 182.214 196.403 181.826 196.253 181.444C196.104 181.061 195.812 180.696 195.378 180.348L189.751 175.834Z" fill="white"/>
<path d="M201.003 170.264L199.41 172.447L198.467 171.813L199.913 169.831C200.152 169.504 200.305 169.179 200.371 168.857C200.437 168.534 200.414 168.234 200.303 167.955C200.191 167.67 199.988 167.426 199.695 167.224C199.374 167.001 199.068 166.882 198.778 166.866C198.487 166.842 198.204 166.923 197.931 167.108C197.656 167.286 197.38 167.564 197.104 167.943L195.878 169.623L203.698 175.028L202.865 176.17L194.093 170.107L196.152 167.285C196.474 166.843 196.808 166.48 197.154 166.197C197.495 165.911 197.85 165.714 198.219 165.607C198.586 165.493 198.962 165.474 199.348 165.55C199.733 165.627 200.13 165.807 200.54 166.09C200.902 166.34 201.163 166.657 201.324 167.041C201.48 167.422 201.533 167.839 201.482 168.29C201.434 168.737 201.279 169.194 201.017 169.66L201.003 170.264ZM205.067 173.153L203.185 175.733L202.709 174.434L204.121 172.499C204.386 172.136 204.546 171.784 204.602 171.443C204.66 171.097 204.622 170.777 204.487 170.482C204.348 170.184 204.117 169.924 203.796 169.702C203.471 169.477 203.148 169.34 202.827 169.291C202.507 169.241 202.193 169.294 201.886 169.45C201.579 169.606 201.285 169.877 201.003 170.264L199.815 171.891L198.89 171.233L200.513 169.009L201.028 168.999C201.366 168.61 201.743 168.342 202.158 168.196C202.569 168.047 202.985 168.006 203.408 168.072C203.834 168.135 204.235 168.297 204.613 168.558C205.159 168.935 205.535 169.373 205.74 169.871C205.943 170.362 205.988 170.888 205.874 171.45C205.756 172.009 205.487 172.577 205.067 173.153Z" fill="white"/>
<path d="M32.9801 184.505L32.0856 185.228L28.4178 180.934L29.3123 180.211L32.9801 184.505ZM36.8991 174.45L28.6033 181.151L27.6852 180.076L35.981 173.375L36.8991 174.45ZM36.3294 180.84L35.4348 181.562L32.2523 177.836L33.1469 177.114L36.3294 180.84ZM40.3338 178.471L39.4335 179.198L35.8134 174.96L36.7136 174.233L40.3338 178.471Z" fill="white"/>
</svg>
